<?xml version="1.0" encoding="utf-8"?>
<svg version="1.1" xmlns:xlink="http://www.w3.org/1999/xlink" width="18px" height="18px" xmlns="http://www.w3.org/2000/svg">
  <g transform="matrix(1 0 0 1 -20 -64 )">
    <path d="M 10.125 15.0703125  C 10.328125 15.0703125  10.50390625 14.99609375  10.65234375 14.84765625  L 11.84765625 13.65234375  C 11.99609375 13.50390625  12.0703125 13.328125  12.0703125 13.125  C 12.0703125 12.921875  11.99609375 12.74609375  11.84765625 12.59765625  L 8.25 9  L 11.84765625 5.40234375  C 11.99609375 5.25390625  12.0703125 5.078125  12.0703125 4.875  C 12.0703125 4.671875  11.99609375 4.49609375  11.84765625 4.34765625  L 10.65234375 3.15234375  C 10.50390625 3.00390625  10.328125 2.9296875  10.125 2.9296875  C 9.921875 2.9296875  9.74609375 3.00390625  9.59765625 3.15234375  L 4.27734375 8.47265625  C 4.12890625 8.62109375  4.0546875 8.796875  4.0546875 9  C 4.0546875 9.203125  4.12890625 9.37890625  4.27734375 9.52734375  L 9.59765625 14.84765625  C 9.74609375 14.99609375  9.921875 15.0703125  10.125 15.0703125  Z M 16.79296875 4.482421875  C 17.59765625 5.861328125  18 7.3671875  18 9  C 18 10.6328125  17.59765625 12.138671875  16.79296875 13.517578125  C 15.98828125 14.896484375  14.896484375 15.98828125  13.517578125 16.79296875  C 12.138671875 17.59765625  10.6328125 18  9 18  C 7.3671875 18  5.861328125 17.59765625  4.482421875 16.79296875  C 3.103515625 15.98828125  2.01171875 14.896484375  1.20703125 13.517578125  C 0.40234375 12.138671875  0 10.6328125  0 9  C 0 7.3671875  0.40234375 5.861328125  1.20703125 4.482421875  C 2.01171875 3.103515625  3.103515625 2.01171875  4.482421875 1.20703125  C 5.861328125 0.402343749999998  7.3671875 0  9 0  C 10.6328125 0  12.138671875 0.402343749999998  13.517578125 1.20703125  C 14.896484375 2.01171875  15.98828125 3.103515625  16.79296875 4.482421875  Z " fill-rule="nonzero" fill="#1a51b7" stroke="none" transform="matrix(1 0 0 1 20 64 )" />
  </g>
</svg>