<?xml version="1.0" encoding="utf-8"?>
<svg version="1.1" xmlns:xlink="http://www.w3.org/1999/xlink" width="3px" height="10px" xmlns="http://www.w3.org/2000/svg">
  <g transform="matrix(1 0 0 1 -388 -249 )">
    <path d="M 2.78125 7.47159090909091  C 2.92708333333333 7.60416666666667  3 7.76515151515151  3 7.95454545454545  L 3 9.31818181818182  C 3 9.50757575757576  2.92708333333333 9.66856060606061  2.78125 9.80113636363636  C 2.63541666666667 9.93371212121212  2.45833333333333 10  2.25 10  L 0.75 10  C 0.541666666666667 10  0.364583333333333 9.93371212121212  0.21875 9.80113636363636  C 0.0729166666666667 9.66856060606061  0 9.50757575757576  0 9.31818181818182  L 0 7.95454545454545  C 0 7.76515151515151  0.0729166666666667 7.60416666666667  0.21875 7.47159090909091  C 0.364583333333333 7.33901515151515  0.541666666666667 7.27272727272727  0.75 7.27272727272727  L 2.25 7.27272727272727  C 2.45833333333333 7.27272727272727  2.63541666666667 7.33901515151515  2.78125 7.47159090909091  Z M 2.78125 3.83522727272727  C 2.92708333333333 3.96780303030303  3 4.12878787878788  3 4.31818181818182  L 3 5.68181818181818  C 3 5.87121212121212  2.92708333333333 6.03219696969697  2.78125 6.16477272727273  C 2.63541666666667 6.29734848484848  2.45833333333333 6.36363636363636  2.25 6.36363636363636  L 0.75 6.36363636363636  C 0.541666666666667 6.36363636363636  0.364583333333333 6.29734848484848  0.21875 6.16477272727273  C 0.0729166666666667 6.03219696969697  0 5.87121212121212  0 5.68181818181818  L 0 4.31818181818182  C 0 4.12878787878788  0.0729166666666667 3.96780303030303  0.21875 3.83522727272727  C 0.364583333333333 3.70265151515151  0.541666666666667 3.63636363636364  0.75 3.63636363636364  L 2.25 3.63636363636364  C 2.45833333333333 3.63636363636364  2.63541666666667 3.70265151515151  2.78125 3.83522727272727  Z M 2.78125 0.198863636363636  C 2.92708333333333 0.331439393939393  3 0.492424242424242  3 0.681818181818182  L 3 2.04545454545455  C 3 2.23484848484848  2.92708333333333 2.39583333333333  2.78125 2.52840909090909  C 2.63541666666667 2.66098484848485  2.45833333333333 2.72727272727273  2.25 2.72727272727273  L 0.75 2.72727272727273  C 0.541666666666667 2.72727272727273  0.364583333333333 2.66098484848485  0.21875 2.52840909090909  C 0.0729166666666667 2.39583333333333  0 2.23484848484848  0 2.04545454545455  L 0 0.681818181818182  C 0 0.492424242424242  0.0729166666666667 0.331439393939393  0.21875 0.198863636363636  C 0.364583333333333 0.0662878787878785  0.541666666666667 0  0.75 0  L 2.25 0  C 2.45833333333333 0  2.63541666666667 0.0662878787878785  2.78125 0.198863636363636  Z " fill-rule="nonzero" fill="#194eb2" stroke="none" transform="matrix(1 0 0 1 388 249 )" />
  </g>
</svg>