<?xml version="1.0" encoding="utf-8"?>
<svg version="1.1" xmlns:xlink="http://www.w3.org/1999/xlink" width="7px" height="6px" xmlns="http://www.w3.org/2000/svg">
  <g transform="matrix(1 0 0 1 -28 -307 )">
    <path d="M 6.48931016070644 1.46167669623615  C 5.63652168910622 1.45994084806592  4.81881460227011 1.12612269692981  4.21357367722954 0.532637004967294  C 4.21357367722954 0.532637004967294  3.75216780759639 0.0768325266661821  3.75216780759639 0.0768325266661821  C 3.7022410904082 0.0276311616972954  3.63459832725121 0  3.56407662774971 0  C 3.4935549282482 0  3.42591241907731 0.0276311616972954  3.37598570188912 0.0768325266661821  C 3.37598570188912 0.0768325266661821  0.54629608632102 2.85770311164072  0.54629608632102 2.85770311164072  C 0.0419455494452146 3.3559314645017  -0.13815586284809 4.0892965942173  0.111522627040579 4.80753471807826  C 0.125496815933946 4.8479982363713  0.142064581842374 4.88754204611915  0.161125412745545 4.92592581751104  C 0.497026212888822 5.60535802564747  1.14885345778845 5.99999448013354  1.86193522745035 5.99999448013354  C 2.10716434132117 6.00058993572785  2.35007572096493 5.95311009087206  2.57659698110677 5.86030472506423  C 2.80311824124862 5.76749935925641  3.00874636718247 5.63121326832046  3.18156925235637 5.45934262906723  C 3.18156925235637 5.45934262906723  6.95537667516528 1.71358634003665  6.95537667516528 1.71358634003665  C 6.97126150421509 1.69757491769492  6.98342222495599 1.67833456753226  6.99101143213179 1.65720642402059  C 6.9986006393076 1.63607828050891  7.00143612319524 1.61357024290904  6.99932033321234 1.59124903789146  C 6.99932033321234 1.59124903789146  6.99932033321234 1.58269826293984  6.99932033321234 1.58269826293984  C 6.9978399104025 1.56219217074268  6.99217099969135 1.54219512745183  6.98265579760995 1.52391168514749  C 6.97314059552854 1.50562824284314  6.95997582063156 1.48943707102901  6.94395542848833 1.47631538208641  C 6.92793503634509 1.46319369314381  6.90939062961257 1.45341249173797  6.88944036123499 1.44756189589348  C 6.86949009285741 1.44171130004898  6.84854723095017 1.43991287080931  6.82787413203881 1.4422738638254  C 6.71544092516576 1.45458981790013  6.60243078888008 1.46106626149872  6.48931016070644 1.46167669623615  Z " fill-rule="nonzero" fill="#1a51b8" stroke="none" transform="matrix(1 0 0 1 28 307 )" />
  </g>
</svg>