<?xml version="1.0" encoding="utf-8"?>
<svg version="1.1" xmlns:xlink="http://www.w3.org/1999/xlink" width="15px" height="15px" xmlns="http://www.w3.org/2000/svg">
  <g transform="matrix(1 0 0 1 -28 -299 )">
    <path d="M 10.3473370632687 6.50007793851576  C 10.3473370632687 6.50007793851576  10.608937458704 6.50007793851576  10.608937458704 6.50007793851576  C 10.9422794118359 6.50098120167685  11.2724910515645 6.43668485029318  11.5804527145338 6.3109120027413  C 11.888414377503 6.18513915518942  12.1680067190802 6.00038874160015  12.4030401085254 5.76735858643  C 12.4030401085254 5.76735858643  14.8446437992544 3.36195109391524  14.8446437992544 3.36195109391524  C 15.0377524596323 3.17158161860649  15.0555097721299 2.86180143252804  14.8715967608062 2.66205415973217  C 14.8254264714204 2.61187000509629  14.7693953546123 2.571456232217  14.7069023889848 2.54326517735734  C 14.6444094233573 2.51507412249769  14.5767576171736 2.49969353610518  14.5080525678067 2.49805654539484  C 14.4393475184399 2.49641955468451  14.3710214618307 2.50856035455037  14.307219957765 2.53374227364108  C 14.2434184536994 2.55892419273179  14.1854712578896 2.59662205323606  14.1368955880867 2.64454875888876  C 14.1368955880867 2.64454875888876  11.9606982023101 4.78831536613645  11.9606982023101 4.78831536613645  C 11.8876280947288 4.86026051020441  11.788577693789 4.90067179757126  11.6853044088941 4.90067179757126  C 11.5820311239992 4.90067179757126  11.4829797553733 4.86026051020441  11.4099096477919 4.78831536613645  C 11.2580228739549 4.6388956437855  11.266267242191 4.38632008945376  11.4178369325021 4.23690036710281  C 11.4178369325021 4.23690036710281  13.5845229313871 2.1009485985472  13.5845229313871 2.1009485985472  C 13.6330893665915 2.05306673273156  13.6712878199053 1.99596164818067  13.6968025844187 1.9330946017132  C 13.722317348932 1.87022755524572  13.7346166317444 1.80290777470799  13.732956305617 1.7352154356038  C 13.7312959794895 1.66752309649962  13.7157102337936 1.60086813650964  13.6871431415504 1.53929021765738  C 13.6585760493072 1.47771229880511  13.6176230434274 1.42249388961917  13.5667658910512 1.37698194688314  C 13.4749486943906 1.29488292176566  13.355240493004 1.24970912133028  13.231282660213 1.25038158392051  C 13.090792174632 1.25047698062845  12.956091196357 1.30557210096148  12.85679780792 1.40355246998318  C 12.85679780792 1.40355246998318  10.6920152476367 3.53731609324461  10.6920152476367 3.53731609324461  C 10.6189451400553 3.60926123731257  10.5198947391155 3.64967204769952  10.4166214542206 3.64967204769952  C 10.3133481693257 3.64967204769952  10.214297768386 3.60926123731257  10.1412276608046 3.53731609324461  C 9.98965797049351 3.38789637089366  9.99758525520367 3.13532057807198  10.1491549455148 2.98590085572102  C 10.1491549455148 2.98590085572102  12.3158399767136 0.850574407815144  12.3158399767136 0.850574407815144  C 12.3644064119181 0.802692541999511  12.4026048652319 0.745587576693598  12.4281196297452 0.682720530226121  C 12.4536343942586 0.619853483758644  12.465934644757 0.552533643598424  12.4642743186296 0.484841304494238  C 12.4626139925022 0.417148965390052  12.4470272791202 0.350493886155105  12.418460186877 0.288915967302837  C 12.3898930946338 0.227338048450569  12.3489400887539 0.172119713792742  12.2980829363777 0.126607771056707  C 12.2062657397172 0.0445087459392316  12.0865585060167 -0.000665061420844777  11.9626006732257 0  C 11.8221240678925 0.000171335702670247  11.687448619899 0.0552559601738954  11.5881158209327 0.153178234534261  C 11.5881158209327 0.153178234534261  9.14809720007117 2.55858553327593  9.14809720007117 2.55858553327593  C 8.91169022553635 2.79033249326838  8.72426918569987 3.06601162738674  8.59668642337661 3.36965908910958  C 8.46910366105336 3.67330655083242  8.40389419228521 3.99888915554715  8.40483490823175 4.32755278211882  C 8.40483490823175 4.32755278211882  8.40483490823175 4.58481713830757  8.40483490823175 4.58481713830757  C 8.4048873644394 4.65059150396723  8.39177886250565 4.71573006287215  8.36626003635661 4.77650343587702  C 8.34074121020758 4.83727680888188  8.30331318057768 4.89249143576626  8.25611896965427 4.93898568507001  C 8.25611896965427 4.93898568507001  7.12695651618545 6.05244374928334  7.12695651618545 6.05244374928334  C 7.11517681537886 6.06406928474097  7.10118837855921 6.07329196314744  7.08579066471908 6.07958438260962  C 7.07039295087895 6.0858768020718  7.0538878828134 6.0891158719641  7.03721959520528 6.0891158719641  C 7.02055130759716 6.0891158719641  7.00404672337467 6.0858768020718  6.98864900953455 6.07958438260962  C 6.97325129569442 6.07329196314744  6.95926285887476 6.06406928474097  6.94748315806817 6.05244374928334  C 6.94748315806817 6.05244374928334  1.45292361847001 0.635510132865613  1.45292361847001 0.635510132865613  C 1.3580913688954 0.541916905725018  1.22950902460852 0.489172199195972  1.0953202924941 0.488820688182785  C 0.961131560379679 0.488469177169598  0.832266787826076 0.540539447394459  0.736931326348016 0.633634528651324  C 0.256537885008439 1.10283745087822  1.08823889181945E-05 1.76522319511283  1.08823889181945E-05 2.54889520961454  C -0.00316003154239582 3.8430325447202  0.686830828918642 5.33097778399336  1.80077291025924 6.42755600650295  C 1.80077291025924 6.42755600650295  4.51031872742308 9.09866825303822  4.51031872742308 9.09866825303822  C 4.89542602147657 9.47754179488681  5.41725762720524 9.69035090555093  5.96132874658713 9.69040760985181  C 6.1347783341964 9.69047770074397  6.30752163189749 9.6686268555651  6.47533410008481 9.62538857167606  C 6.51746896824144 9.61450775369434  6.56083368607845 9.60894085751751  6.60439004356781 9.60882115180725  C 6.73175645244236 9.60884065598999  6.85441404016762 9.65629218887221  6.94780007527308 9.74167340957253  C 6.94780007527308 9.74167340957253  7.30896714731421 10.0705214783095  7.30896714731421 10.0705214783095  C 7.40211696872532 10.164337522139  7.45445035312445 10.2902868522541  7.45482937951837 10.4215643757831  C 7.45482937951837 10.4215643757831  7.45482937951837 10.5947405143484  7.45482937951837 10.5947405143484  C 7.45390259679904 10.9884232089071  7.610847114689 11.3665118207067  7.89146387298694 11.6466176115098  C 7.89146387298694 11.6466176115098  10.746872406198 14.5090369565935  10.746872406198 14.5090369565935  C 10.746872406198 14.5090369565935  10.7497261125713 14.5121630828623  10.7497261125713 14.5121630828623  C 11.0666489119111 14.8245489654211  11.4964716813269 15.0000293159849  11.944638483432 15  C 12.3928052855371 14.9999706840151  12.8226042861625 14.8244339834538  13.1394850516364 14.5120066334549  C 13.4563658171103 14.199579283456  13.6343710766754 13.7758534136307  13.6343413483119 13.3340437153987  C 13.6343116199484 12.8922340171667  13.4562491504522 12.468531578979  13.1393263511124 12.156145666609  C 13.1393263511124 12.156145666609  8.8592274097223 7.93675761655815  8.8592274097223 7.93675761655815  C 8.84743459695776 7.9251450070695  8.83807873159001 7.91135546876714  8.83169577186967 7.89617616661175  C 8.82531281214933 7.88099686445636  8.82202761982631 7.86472591554384  8.82202761982631 7.84829406230617  C 8.82202761982631 7.83186220906849  8.82531281214933 7.81559126015598  8.83169577186967 7.80041195800058  C 8.83807873159001 7.78523265584519  8.84743459695776 7.77144216358304  8.8592274097223 7.75982955409439  C 8.8592274097223 7.75982955409439  9.98838937934805 6.64668438869588  9.98838937934805 6.64668438869588  C 10.035514914797 6.60019685064839  10.0914719128962 6.56332094016829  10.1530624620748 6.53816526056172  C 10.2146530112533 6.51300958095515  10.2806696357925 6.50006732441383  10.3473370632687 6.50007793851576  Z " fill-rule="nonzero" fill="#1a51b8" stroke="none" transform="matrix(1 0 0 1 28 299 )" />
  </g>
</svg>