<?xml version="1.0" encoding="utf-8"?>
<svg version="1.1" xmlns:xlink="http://www.w3.org/1999/xlink" width="12px" height="12px" xmlns="http://www.w3.org/2000/svg">
  <g transform="matrix(1 0 0 1 -149 -686 )">
    <path d="M 0 6.0000005844339  C 0 9.30848057414786  2.69166660308838 12  6 12  C 9.30833339691162 12  12 9.30840401330756  12 6.0000005844339  C 12 2.69159715556023  9.30833339691162 0  6 0  C 2.69166660308838 0  0 2.69152059471993  0 6.0000005844339  Z M 2.66666666666667 6.0000005844339  C 2.66666666666667 4.0432555597927  4.16200002034505 2.45129342526478  6 2.45129342526478  C 7.83799997965495 2.45129342526478  9.33333333333333 4.0432555597927  9.33333333333333 6.0000005844339  C 9.33333333333333 7.95674560907509  7.83799997965495 9.54870657473522  6 9.54870657473522  C 4.16200002034505 9.54870657473522  2.66666666666667 7.95674560907509  2.66666666666667 6.0000005844339  Z " fill-rule="nonzero" fill="#f59a23" stroke="none" transform="matrix(1 0 0 1 149 686 )" />
  </g>
</svg>