<?xml version="1.0" encoding="utf-8"?>
<svg version="1.1" xmlns:xlink="http://www.w3.org/1999/xlink" width="9px" height="8px" xmlns="http://www.w3.org/2000/svg">
  <g transform="matrix(1 0 0 1 -32 -593 )">
    <path d="M 8.34339877805113 1.94890226164819  C 7.24695645742228 1.94658779742122  6.19561877434729 1.50149692923974  5.41745187072369 0.710182673289726  C 5.41745187072369 0.710182673289726  4.82421575262393 0.102443368888243  4.82421575262393 0.102443368888243  C 4.76002425909626 0.0368415489297272  4.67305499218013 0  4.5823842356782 0  C 4.49171347917626 0  4.40474453881368 0.0368415489297272  4.34055304528601 0.102443368888243  C 4.34055304528601 0.102443368888243  0.70238068241274 3.81027081552096  0.70238068241274 3.81027081552096  C 0.0539299921438473 4.47457528600226  -0.177628966518973 5.45239545895641  0.143386234766458 6.41004629077101  C 0.161353049057931 6.46399764849507  0.182654462368767 6.51672272815887  0.207161244958557 6.56790109001472  C 0.639033702285628 7.4738107008633  1.47709730287087 7.99999264017805  2.3939167210076 7.99999264017805  C 2.70921129598436 8.00078658097046  3.02152592695491 7.93748012116274  3.31276754713728 7.81373963341898  C 3.60400916731965 7.68999914567521  3.86838818637746 7.50828435776061  4.09058903874391 7.27912350542297  C 4.09058903874391 7.27912350542297  8.94262715378394 2.28478178671554  8.94262715378394 2.28478178671554  C 8.9630505054194 2.26343322359323  8.97868571780055 2.23777942337635  8.98844326988374 2.20960856536078  C 8.99820082196692 2.18143770734521  9.00184644410817 2.15142699054539  8.99912614270158 2.12166538385528  C 8.99912614270158 2.12166538385528  8.99912614270158 2.11026435058646  8.99912614270158 2.11026435058646  C 8.99722274194607 2.08292289432358  8.98993414246031 2.05626016993578  8.97770031121279 2.03188224686332  C 8.96546647996527 2.00750432379085  8.94854034081201 1.98591609470535  8.92794269377071 1.96842050944855  C 8.9073450467294 1.95092492419174  8.8835022380733 1.9378833223173  8.85785189301641 1.93008252785797  C 8.83220154795952 1.92228173339865  8.80527501122165 1.91988382774575  8.77869531262132 1.92303181843386  C 8.63413833235597 1.9394530905335  8.48883958570296 1.94808834866496  8.34339877805113 1.94890226164819  Z " fill-rule="nonzero" fill="#1a51b8" stroke="none" transform="matrix(1 0 0 1 32 593 )" />
  </g>
</svg>