<?xml version="1.0" encoding="utf-8"?>
<svg version="1.1" xmlns:xlink="http://www.w3.org/1999/xlink" width="27px" height="17px" xmlns="http://www.w3.org/2000/svg">
  <g transform="matrix(1 0 0 1 -36 -519 )">
    <path d="M 10.8 10.625  L 10.8 11.9  L 16.2 11.9  L 16.2 10.625  L 14.4 10.625  L 14.4 4.675  L 12.796875 4.675  L 10.715625 6.49453125  L 11.7984375 7.55703125  C 12.1921875 7.22942708333333  12.45 6.97708333333333  12.571875 6.8  L 12.6 6.8  L 12.6 10.625  L 10.8 10.625  Z M 17.7046875 6.6140625  C 17.9015625 7.2515625  18 7.88020833333333  18 8.5  C 18 9.11979166666667  17.9015625 9.7484375  17.7046875 10.3859375  C 17.5078125 11.0234375  17.22890625 11.6166666666667  16.86796875 12.165625  C 16.50703125 12.7145833333333  16.03125 13.16171875  15.440625 13.50703125  C 14.85 13.85234375  14.203125 14.025  13.5 14.025  C 12.796875 14.025  12.15 13.85234375  11.559375 13.50703125  C 10.96875 13.16171875  10.49296875 12.7145833333333  10.13203125 12.165625  C 9.77109375 11.6166666666667  9.4921875 11.0234375  9.2953125 10.3859375  C 9.0984375 9.7484375  9 9.11979166666667  9 8.5  C 9 7.88020833333333  9.0984375 7.2515625  9.2953125 6.6140625  C 9.4921875 5.9765625  9.77109375 5.38333333333333  10.13203125 4.834375  C 10.49296875 4.28541666666666  10.96875 3.83828125  11.559375 3.49296875  C 12.15 3.14765625  12.796875 2.975  13.5 2.975  C 14.203125 2.975  14.85 3.14765625  15.440625 3.49296875  C 16.03125 3.83828125  16.50703125 4.28541666666666  16.86796875 4.834375  C 17.22890625 5.38333333333333  17.5078125 5.9765625  17.7046875 6.6140625  Z M 22.6546875 12.89609375  C 23.3578125 12.23203125  24.20625 11.9  25.2 11.9  L 25.2 5.1  C 24.20625 5.1  23.3578125 4.76796875  22.6546875 4.10390625  C 21.9515625 3.43984375  21.6 2.63854166666666  21.6 2  L 5.4 2  C 5.4 2.63854166666666  5.0484375 3.43984375  4.3453125 4.10390625  C 3.6421875 4.76796875  2.79375 5.1  1.8 5.1  L 1.8 11.9  C 2.79375 11.9  3.6421875 12.23203125  4.3453125 12.89609375  C 5.0484375 13.56015625  5.4 14.3614583333333  5.4 15  L 21.6 15  C 21.6 14.3614583333333  21.9515625 13.56015625  22.6546875 12.89609375  Z M 26.7328125 0.252343750000001  C 26.9109375 0.420572916666665  27 0.619791666666665  27 0.850000000000001  L 27 16.15  C 27 16.3802083333333  26.9109375 16.5794270833333  26.7328125 16.74765625  C 26.5546875 16.9158854166667  26.34375 17  26.1 17  L 0.9 17  C 0.65625 17  0.4453125 16.9158854166667  0.2671875 16.74765625  C 0.0890625 16.5794270833333  0 16.3802083333333  0 16.15  L 0 0.850000000000001  C 0 0.619791666666665  0.0890625 0.420572916666665  0.2671875 0.252343750000001  C 0.4453125 0.0841145833333323  0.65625 0  0.9 0  L 26.1 0  C 26.34375 0  26.5546875 0.0841145833333323  26.7328125 0.252343750000001  Z " fill-rule="nonzero" fill="#4b7902" stroke="none" transform="matrix(1 0 0 1 36 519 )" />
  </g>
</svg>