<?xml version="1.0" encoding="utf-8"?>
<svg version="1.1" xmlns:xlink="http://www.w3.org/1999/xlink" width="22px" height="17px" xmlns="http://www.w3.org/2000/svg">
  <g transform="matrix(1 0 0 1 -36 -609 )">
    <path d="M 1.83333333333333 0  L 20.1666666666667 0  C 20.6708333333333 0  21.1024305555556 0.173394097222221  21.4614583333333 0.520182291666667  C 21.8204861111111 0.86697048611111  22 1.28385416666667  22 1.77083333333333  L 22 15.2291666666667  C 22 15.7161458333333  21.8204861111111 16.1330295138889  21.4614583333333 16.4798177083333  C 21.1024305555556 16.8266059027778  20.6708333333333 17  20.1666666666667 17  L 1.83333333333333 17  C 1.32916666666667 17  0.897569444444445 16.8266059027778  0.538541666666667 16.4798177083333  C 0.179513888888889 16.1330295138889  0 15.7161458333333  0 15.2291666666667  L 0 1.77083333333333  C 0 1.28385416666667  0.179513888888889 0.86697048611111  0.538541666666667 0.520182291666667  C 0.897569444444445 0.173394097222221  1.32916666666667 0  1.83333333333333 0  Z M 20.1666666666667 1.41666666666667  L 1.83333333333333 1.41666666666667  C 1.73402777777778 1.41666666666667  1.64809027777778 1.45171440972222  1.57552083333333 1.52180989583333  C 1.50295138888889 1.59190538194444  1.46666666666667 1.67491319444444  1.46666666666667 1.77083333333333  L 1.46666666666667 4.25  L 20.5333333333333 4.25  L 20.5333333333333 1.77083333333333  C 20.5333333333333 1.67491319444444  20.4970486111111 1.59190538194444  20.4244791666667 1.52180989583333  C 20.3519097222222 1.45171440972222  20.2659722222222 1.41666666666667  20.1666666666667 1.41666666666667  Z M 1.83333333333333 15.5833333333333  L 20.1666666666667 15.5833333333333  C 20.2659722222222 15.5833333333333  20.3519097222222 15.5482855902778  20.4244791666667 15.4781901041667  C 20.4970486111111 15.4080946180556  20.5333333333333 15.3250868055556  20.5333333333333 15.2291666666667  L 20.5333333333333 8.5  L 1.46666666666667 8.5  L 1.46666666666667 15.2291666666667  C 1.46666666666667 15.3250868055556  1.50295138888889 15.4080946180556  1.57552083333333 15.4781901041667  C 1.64809027777778 15.5482855902778  1.73402777777778 15.5833333333333  1.83333333333333 15.5833333333333  Z M 5.86666666666667 14.1666666666667  L 2.93333333333333 14.1666666666667  L 2.93333333333333 12.75  L 5.86666666666667 12.75  L 5.86666666666667 14.1666666666667  Z M 11.7333333333333 14.1666666666667  L 7.33333333333333 14.1666666666667  L 7.33333333333333 12.75  L 11.7333333333333 12.75  L 11.7333333333333 14.1666666666667  Z " fill-rule="nonzero" fill="#6300bf" stroke="none" transform="matrix(1 0 0 1 36 609 )" />
  </g>
</svg>