<?xml version="1.0" encoding="utf-8"?>
<svg version="1.1" xmlns:xlink="http://www.w3.org/1999/xlink" width="19px" height="17px" xmlns="http://www.w3.org/2000/svg">
  <g transform="matrix(1 0 0 1 -228 -609 )">
    <path d="M 0 3.64285714285714  L 9.5 0  L 19 3.64285714285714  L 19 4.85714285714286  L 17.7333333333333 4.85714285714286  C 17.7333333333333 5.02157738095238  17.6657118055556 5.16387648809524  17.53046875 5.28404017857143  C 17.3952256944444 5.40420386904762  17.2352430555556 5.46428571428571  17.0505208333333 5.46428571428571  L 1.94947916666667 5.46428571428571  C 1.76475694444444 5.46428571428571  1.60477430555556 5.40420386904762  1.46953125 5.28404017857143  C 1.33428819444444 5.16387648809524  1.26666666666667 5.02157738095238  1.26666666666667 4.85714285714286  L 0 4.85714285714286  L 0 3.64285714285714  Z M 2.53333333333333 13.3571428571429  L 2.53333333333333 6.07142857142857  L 5.06666666666667 6.07142857142857  L 5.06666666666667 13.3571428571429  L 6.33333333333333 13.3571428571429  L 6.33333333333333 6.07142857142857  L 8.86666666666667 6.07142857142857  L 8.86666666666667 13.3571428571429  L 10.1333333333333 13.3571428571429  L 10.1333333333333 6.07142857142857  L 12.6666666666667 6.07142857142857  L 12.6666666666667 13.3571428571429  L 13.9333333333333 13.3571428571429  L 13.9333333333333 6.07142857142857  L 16.4666666666667 6.07142857142857  L 16.4666666666667 13.3571428571429  L 17.0505208333333 13.3571428571429  C 17.2352430555556 13.3571428571429  17.3952256944444 13.417224702381  17.53046875 13.5373883928571  C 17.6657118055556 13.6575520833333  17.7333333333333 13.7998511904762  17.7333333333333 13.9642857142857  L 17.7333333333333 14.5714285714286  L 1.26666666666667 14.5714285714286  L 1.26666666666667 13.9642857142857  C 1.26666666666667 13.7998511904762  1.33428819444444 13.6575520833333  1.46953125 13.5373883928571  C 1.60477430555556 13.417224702381  1.76475694444444 13.3571428571429  1.94947916666667 13.3571428571429  L 2.53333333333333 13.3571428571429  Z M 0.6828125 15  L 18.3171875 15  C 18.5019097222222 15.1785714285714  18.6618923611111 15.2386532738095  18.7971354166667 15.3588169642857  C 18.9323784722222 15.4789806547619  19 15.6212797619048  19 15.7857142857143  L 19 17  L 0 17  L 0 15.7857142857143  C 0 15.6212797619048  0.0676215277777778 15.4789806547619  0.202864583333333 15.3588169642857  C 0.338107638888889 15.2386532738095  0.498090277777778 15.1785714285714  0.6828125 15  Z " fill-rule="nonzero" fill="#1a51b8" stroke="none" transform="matrix(1 0 0 1 228 609 )" />
  </g>
</svg>