<?xml version="1.0" encoding="utf-8"?>
<svg version="1.1" xmlns:xlink="http://www.w3.org/1999/xlink" width="21px" height="17px" xmlns="http://www.w3.org/2000/svg">
  <g transform="matrix(1 0 0 1 -227 -519 )">
    <path d="M 20.694391215289 2.90385328806364  C 20.5972736167841 2.81212514810837  20.4816411110607 2.73938459903002  20.3542160822204 2.68986186614403  C 20.22679105338 2.64033913325805  20.0901166332778 2.61502265972488  19.9521434413802 2.61538461538462  C 19.9521434413802 2.61538461538462  19.2111188541105 2.61538461538462  19.2111188541105 2.61538461538462  C 19.2111188541105 2.61538461538462  19.2111188541105 0.980769230769231  19.2111188541105 0.980769230769231  C 19.2108068338873 0.720742694460429  19.1003057062437 0.471449861159691  18.9038578347236 0.287583222756019  C 18.7074099632035 0.103716584352347  18.4410587199302 0.000292037318174082  18.1632396438863 0  C 18.1632396438863 0  3.08369015955295 0  3.08369015955295 0  C 2.2658482354876 1.08378965076274E-05  1.48150632717368 0.30409518801249  0.903204745187533 0.845360242403471  C 0.324903163201384 1.38662529679445  1.15794889119809E-05 2.12073510885239  0 2.88619947433472  C 0 2.88619947433472  0 14.113799902109  0 14.113799902109  C 1.15794889119809E-05 14.8792642675913  0.324903163201384 15.6133747032055  0.903204745187533 16.1546397575965  C 1.48150632717368 16.6959048119875  2.2658482354876 16.9999891621035  3.08369015955295 17  C 3.08369015955295 17  19.9108842101376 17  19.9108842101376 17  C 20.1880521774711 16.9994964132582  20.4537636586557 16.8964347839355  20.6500660227647 16.7132938091572  C 20.8463683868736 16.5301528343788  20.9573347043743 16.2817913993047  20.9587634203618 16.0223772342388  C 20.9587634203618 16.0223772342388  20.9999800132902 3.59950483762301  20.9999800132902 3.59950483762301  C 21.0008478113272 3.47038165709147  20.9742776041684 3.34238535968157  20.9218159886445 3.22295977519109  C 20.8693543731207 3.1035341907006  20.7920473411157 2.99506267790611  20.694391215289 2.90385328806364  Z M 19.601759096951 4  L 19.5627263851789 15.6923076923077  C 19.5627263851789 15.6923076923077  3.08369015955295 15.6923076923077  3.08369015955295 15.6923076923077  C 2.63639779600841 15.6923076923077  2.20742543803254 15.5260006521757  1.89114198063726 15.2299731327937  C 1.57485852324197 14.9339456134118  1.39717228029895 14.5324460428495  1.39717228029895 14.113799902109  C 1.39717228029895 14.113799902109  1.39717228029895 2.88619947433472  1.39717228029895 2.88619947433472  C 1.39717228029895 2.46755333359425  1.57485852324197 2.06605376303196  1.89114198063726 1.77002624365  C 2.20742543803254 1.47399872426803  2.63639779600841 1.30769230769231  3.08369015955295 1.30769230769231  C 3.08369015955295 1.30769230769231  17.8139465738116 1.30769230769231  17.8139465738116 1.30769230769231  L 17.8139465738116 2.61538461538462  L 3.14363763067263 2.61538461538462  L 3.14363763067263 4  L 19.601759096951 4  Z " fill-rule="nonzero" fill="#fa2591" stroke="none" transform="matrix(1 0 0 1 227 519 )" />
  </g>
</svg>