<?xml version="1.0" encoding="utf-8"?>
<svg version="1.1" xmlns:xlink="http://www.w3.org/1999/xlink" width="14px" height="3px" xmlns="http://www.w3.org/2000/svg">
  <g transform="matrix(1 0 0 1 -28 -271 )">
    <path d="M 1.86410157780796 2.32637671485646  C 1.86410157780796 2.32637671485646  13.5903156590447 2.32637671485646  13.5903156590447 2.32637671485646  C 13.7272920153197 2.32630386996896  13.8641321924894 2.33615884654872  14 2.35588146147853  C 13.9539448416724 1.98926280723477  13.8428986749675 1.63701787264798  13.6735551218331 1.32038385877949  C 13.5042115686986 1.00374984491099  13.2800783397359 0.729285312843336  13.0146701649187 0.513538174301661  C 12.7492619901016 0.297791035759986  12.448076077517 0.145230068670878  12.1292704042028 0.0650534220218788  C 11.8104647308886 -0.0151232246271206  11.4806435684552 -0.0212547625140716  11.1596918095946 0.0470283270873237  C 11.1596918095946 0.0470283270873237  1.51597959312131 1.91414092629409  1.51597959312131 1.91414092629409  C 1.51597959312131 1.91414092629409  1.50498615545921 1.91414092629409  1.50498615545921 1.91414092629409  C 0.899647378379799 2.0454153270534  0.361336993073097 2.43381040069717  0 3  C 0.544387815805622 2.56088770836883  1.1960515320935 2.32539849572711  1.86410157780796 2.32637671485646  Z " fill-rule="nonzero" fill="#1a50b5" stroke="none" transform="matrix(1 0 0 1 28 271 )" />
  </g>
</svg>