<?xml version="1.0" encoding="utf-8"?>
<svg version="1.1" xmlns:xlink="http://www.w3.org/1999/xlink" width="11px" height="12px" xmlns="http://www.w3.org/2000/svg">
  <g transform="matrix(1 0 0 1 -30 -318 )">
    <path d="M 11 6.00011549022279  L 10.3296174275103 4.58822633494804  L 10.2631457600244 2.99997503595621  L 9.03566250858189 2.14305170389685  L 8.25 0.803842777460847  L 6.79407696502623 0.731129704513978  L 5.5 0  L 4.20592303497377 0.731294996743327  L 2.74999976885209 0.804007943609167  L 1.96433772256602 2.14305170389685  L 0.736854008827665 2.99997503595621  L 0.670382341341754 4.58822633494804  L 0 5.99998335730414  L 0.670382341341754 7.41177316072784  L 0.737035691086869 8.99999167865207  L 1.96433772256602 9.85691501071142  L 2.74987864734595 11.1961567812556  L 4.20580191346764 11.2687048141351  L 5.5 12  L 6.79407696502623 11.2687048141351  L 8.25 11.1961567812556  L 9.03554138707575 9.85691501071142  L 10.2631152485 9.00012381157073  L 10.3296174275103 7.4119052936465  L 11 6.00011549022279  Z M 9.90821629123763 5.99998335730414  L 9.37083807676868 7.13149755432222  L 9.31742441715424 8.40443885914824  L 8.33352853424318 9.09124711032788  L 7.70395651258823 10.1645900420699  L 6.53706729951323 10.2227608030218  L 5.5 10.8088610756006  L 4.46281157898064 10.2227608030218  L 3.29592213475772 10.1645900420699  L 2.66634965080695 9.09124711032788  L 1.68257535169785 8.40443885914824  L 1.62928281358955 7.13149755432222  L 1.09178347761446 5.99998335730414  L 1.62916169208341 4.86870014073164  L 1.68257535169785 3.5955608886897  L 2.66634965080695 2.90875314183418  L 3.29592213475772 1.83544248683567  L 4.46281157898064 1.77727197804576  L 5.5 1.19113892439938  L 6.53718842101936 1.7772389448161  L 7.70407763409437 1.83540945360601  L 8.33364965574931 2.90872010860452  L 9.31742441715424 3.5955608886897  L 9.37071695526254 4.86853522674538  L 9.90821629123763 5.99998335730414  Z " fill-rule="nonzero" fill="#194daf" stroke="none" transform="matrix(1 0 0 1 30 318 )" />
  </g>
</svg>