<?xml version="1.0" encoding="utf-8"?>
<svg version="1.1" xmlns:xlink="http://www.w3.org/1999/xlink" width="16px" height="13px" xmlns="http://www.w3.org/2000/svg">
  <g transform="matrix(1 0 0 1 -27 -274 )">
    <path d="M 13.7142857142857 0  C 13.7142857142857 0  2.28571428571429 0  2.28571428571429 0  C 1.67970827647618 0.00075272245449014  1.09871223994664 0.274922013282776  0.670201029096331 0.762353515625  C 0.241689818246024 1.24978501796722  0.000661734025925398 1.91066816449165  0 2.6  C 0 2.6  0 10.4  0 10.4  C 0.000661734025925398 11.0893318355083  0.241689818246024 11.7502149820328  0.670201029096331 12.237646484375  C 1.09871223994664 12.7250779867172  1.67970827647618 12.9992472775455  2.28571428571429 13  C 2.28571428571429 13  13.7142857142857 13  13.7142857142857 13  C 14.3202917235238 12.9992472775455  14.9012878962925 12.7250779867172  15.3297991071429 12.237646484375  C 15.7583103179932 11.7502149820328  15.9993382659741 11.0893318355083  16 10.4  C 16 10.4  16 2.6  16 2.6  C 15.9993382659741 1.91066816449165  15.7583103179932 1.24978501796722  15.3297991071429 0.762353515625  C 14.9012878962925 0.274922013282776  14.3202917235238 0.00075272245449014  13.7142857142857 0  Z M 12.8259789603097 7.41923856735229  C 12.6116516760417 7.66303585320711  12.3209617137909 7.8  12.0178571428571 7.8  C 11.7918213605881 7.8  11.5708612033299 7.7237562276423  11.3829193115234 7.58091039657593  C 11.194977419717 7.43806456550956  11.0484948669161 7.2350328296423  10.9619947160993 6.99748888015747  C 10.8754945652825 6.75994493067265  10.8528621835368 6.49855792671442  10.8969595772879 6.24638261795044  C 10.9410569710391 5.99420730918646  11.0499038866588 5.76256969422102  11.2097353254046 5.58076143264771  C 11.3695667641503 5.39895317107439  11.5732042278562 5.27513980455697  11.7948968069894 5.22497901916504  C 12.0165893861226 5.17481823377311  12.2463801588331 5.2005625680089  12.455210004534 5.29895648956299  C 12.664039850235 5.39735041111708  12.8425292883601 5.56397431492805  12.9681080409459 5.77775821685791  C 13.0936867935317 5.99154211878777  13.1607142857143 6.24288429766893  13.1607142857143 6.5  C 13.1607142857143 6.84478144943714  13.0403062445777 7.17544128149748  12.8259789603097 7.41923856735229  Z " fill-rule="nonzero" fill="#1a50b5" stroke="none" transform="matrix(1 0 0 1 27 274 )" />
  </g>
</svg>