<?xml version="1.0" encoding="utf-8"?>
<svg version="1.1" xmlns:xlink="http://www.w3.org/1999/xlink" width="5px" height="8px" xmlns="http://www.w3.org/2000/svg">
  <g transform="matrix(1 0 0 1 -27 -272 )">
    <path d="M 1.96370300174966 6.90697674418605  L 0 8  C 0 8  0 3.37209302325581  0 3.37209302325581  C 0 2.36418604296307  0.440456748055998 0.674418471580328  1.96920876710733 0.308371965275254  C 3.26672088141532 0  4.55138639657865 0  4.55138639657865 0  C 4.55138639657865 0  5.39559516368598 0.744186046511628  4.69820531259731 0.744186046511628  C 4.00081546150865 0.744186046511628  4.01916782601098 1.88372093023256  4.69820531259731 1.88372093023256  C 5.37724279918364 1.88372093023256  4.69820531259731 2.97674418604651  4.69820531259731 2.97674418604651  C 4.69820531259731 2.97674418604651  1.96370300174966 6.90697674418605  1.96370300174966 6.90697674418605  Z " fill-rule="nonzero" fill="#1a50b5" stroke="none" transform="matrix(1 0 0 1 27 272 )" />
  </g>
</svg>