<?xml version="1.0" encoding="utf-8"?>
<svg version="1.1" xmlns:xlink="http://www.w3.org/1999/xlink" width="18px" height="11px" xmlns="http://www.w3.org/2000/svg">
  <g transform="matrix(1 0 0 1 -374 -93 )">
    <path d="M 13.3643973214286 8.61762152777778  C 14.70703125 7.84418402777778  15.8236607142857 6.80497685185185  16.7142857142857 5.5  C 15.6964285714286 3.99768518518519  14.4207589285714 2.87413194444444  12.8872767857143 2.12934027777778  C 13.2957589285714 2.79137731481481  13.5 3.50752314814815  13.5 4.27777777777778  C 13.5 5.45543981481481  13.0597098214286 6.46281828703704  12.1791294642857 7.29991319444444  C 11.2985491071429 8.13700810185185  10.2388392857143 8.55555555555556  9 8.55555555555556  C 7.76116071428572 8.55555555555556  6.70145089285714 8.13700810185185  5.82087053571429 7.29991319444444  C 4.94029017857143 6.46281828703704  4.5 5.45543981481481  4.5 4.27777777777778  C 4.5 3.50752314814815  4.70424107142857 2.79137731481481  5.11272321428571 2.12934027777778  C 3.57924107142857 2.87413194444444  2.30357142857143 3.99768518518519  1.28571428571429 5.5  C 2.17633928571429 6.80497685185185  3.29296875 7.84418402777778  4.63560267857143 8.61762152777778  C 5.97823660714286 9.39105902777778  7.43303571428571 9.77777777777778  9 9.77777777777778  C 10.5669642857143 9.77777777777778  12.0217633928571 9.39105902777778  13.3643973214286 8.61762152777778  Z M 9.34151785714286 2.15798611111111  C 9.43526785714286 2.06886574074074  9.48214285714286 1.96064814814815  9.48214285714286 1.83333333333333  C 9.48214285714286 1.70601851851852  9.43526785714286 1.59780092592592  9.34151785714286 1.50868055555556  C 9.24776785714286 1.41956018518518  9.13392857142857 1.375  9 1.375  C 8.16294642857143 1.375  7.44475446428572 1.65986689814815  6.84542410714286 2.22960069444444  C 6.24609375 2.79933449074074  5.94642857142857 3.48206018518519  5.94642857142857 4.27777777777778  C 5.94642857142857 4.40509259259259  5.99330357142857 4.51331018518519  6.08705357142857 4.60243055555556  C 6.18080357142857 4.69155092592592  6.29464285714286 4.73611111111111  6.42857142857143 4.73611111111111  C 6.5625 4.73611111111111  6.67633928571429 4.69155092592592  6.77008928571429 4.60243055555556  C 6.86383928571429 4.51331018518519  6.91071428571429 4.40509259259259  6.91071428571429 4.27777777777778  C 6.91071428571429 3.73032407407407  7.11495535714286 3.26244212962963  7.5234375 2.87413194444444  C 7.93191964285714 2.48582175925926  8.42410714285714 2.29166666666667  9 2.29166666666667  C 9.13392857142857 2.29166666666667  9.24776785714286 2.24710648148148  9.34151785714286 2.15798611111111  Z M 17.7991071428571 4.84114583333333  C 17.9330357142857 5.06394675925926  18 5.28356481481481  18 5.5  C 18 5.71643518518518  17.9330357142857 5.93605324074074  17.7991071428571 6.15885416666667  C 16.8616071428571 7.62297453703704  15.6010044642857 8.79586226851852  14.0172991071429 9.67751736111111  C 12.43359375 10.5591724537037  10.7611607142857 11  9 11  C 7.23883928571429 11  5.56640625 10.5575810185185  3.98270089285714 9.67274305555556  C 2.39899553571429 8.78790509259259  1.13839285714286 7.6166087962963  0.200892857142857 6.15885416666667  C 0.0669642857142857 5.93605324074074  0 5.71643518518518  0 5.5  C 0 5.28356481481481  0.0669642857142857 5.06394675925926  0.200892857142857 4.84114583333333  C 1.13839285714286 3.3833912037037  2.39899553571429 2.21209490740741  3.98270089285714 1.32725694444444  C 5.56640625 0.442418981481481  7.23883928571429 0  9 0  C 10.7611607142857 0  12.43359375 0.442418981481481  14.0172991071429 1.32725694444444  C 15.6010044642857 2.21209490740741  16.8616071428571 3.3833912037037  17.7991071428571 4.84114583333333  Z " fill-rule="nonzero" fill="#aaaaaa" stroke="none" transform="matrix(1 0 0 1 374 93 )" />
  </g>
</svg>