<?xml version="1.0" encoding="utf-8"?>
<svg version="1.1" xmlns:xlink="http://www.w3.org/1999/xlink" width="33px" height="30px" xmlns="http://www.w3.org/2000/svg">
  <g transform="matrix(1 0 0 1 -346 -680 )">
    <path d="M 0 24.5454545454545  L 7.5625 24.5454545454545  L 7.5625 27.2727272727273  L 0 27.2727272727273  L 0 24.5454545454545  Z M 9.625 21.8181818181818  L 15.125 21.8181818181818  C 15.4973958333333 21.8181818181818  15.8196614583333 21.953125  16.091796875 22.2230113636364  C 16.3639322916667 22.4928977272727  16.5 22.8125  16.5 23.1818181818182  L 16.5 28.6363636363636  C 16.5 29.0056818181818  16.3639322916667 29.3252840909091  16.091796875 29.5951704545455  C 15.8196614583333 29.8650568181818  15.4973958333333 30  15.125 30  L 9.625 30  C 9.25260416666667 30  8.93033854166667 29.8650568181818  8.658203125 29.5951704545455  C 8.38606770833333 29.3252840909091  8.25 29.0056818181818  8.25 28.6363636363636  L 8.25 23.1818181818182  C 8.25 22.8125  8.38606770833333 22.4928977272727  8.658203125 22.2230113636364  C 8.93033854166667 21.953125  9.25260416666667 21.8181818181818  9.625 21.8181818181818  Z M 0 14  L 18.5625 14  L 18.5625 16  L 0 16  L 0 14  Z M 0 2.72727272727273  L 4.8125 2.72727272727273  L 4.8125 5.45454545454545  L 0 5.45454545454545  L 0 2.72727272727273  Z M 17.1875 24  L 33 24  L 33 27  L 17.1875 27  L 17.1875 24  Z M 6.875 0  L 12.375 0  C 12.7473958333333 0  13.0696614583333 0.134943181818179  13.341796875 0.404829545454547  C 13.6139322916667 0.674715909090905  13.75 0.99431818181818  13.75 1.36363636363636  L 13.75 6.81818181818182  C 13.75 7.1875  13.6139322916667 7.50710227272727  13.341796875 7.77698863636364  C 13.0696614583333 8.046875  12.7473958333333 8.18181818181818  12.375 8.18181818181818  L 6.875 8.18181818181818  C 6.50260416666667 8.18181818181818  6.18033854166667 8.046875  5.908203125 7.77698863636364  C 5.63606770833333 7.50710227272727  5.5 7.1875  5.5 6.81818181818182  L 5.5 1.36363636363636  C 5.5 0.99431818181818  5.63606770833333 0.674715909090905  5.908203125 0.404829545454547  C 6.18033854166667 0.134943181818179  6.50260416666667 0  6.875 0  Z M 20.625 10.9090909090909  L 26.125 10.9090909090909  C 26.4973958333333 10.9090909090909  26.8196614583333 11.0440340909091  27.091796875 11.3139204545455  C 27.3639322916667 11.5838068181818  27.5 11.9034090909091  27.5 12.2727272727273  L 27.5 17.7272727272727  C 27.5 18.0965909090909  27.3639322916667 18.4161931818182  27.091796875 18.6860795454545  C 26.8196614583333 18.9559659090909  26.4973958333333 19.0909090909091  26.125 19.0909090909091  L 20.625 19.0909090909091  C 20.2526041666667 19.0909090909091  19.9303385416667 18.9559659090909  19.658203125 18.6860795454545  C 19.3860677083333 18.4161931818182  19.25 18.0965909090909  19.25 17.7272727272727  L 19.25 12.2727272727273  C 19.25 11.9034090909091  19.3860677083333 11.5838068181818  19.658203125 11.3139204545455  C 19.9303385416667 11.0440340909091  20.2526041666667 10.9090909090909  20.625 10.9090909090909  Z M 28.1875 13.6363636363636  L 33 13.6363636363636  L 33 16.3636363636364  L 28.1875 16.3636363636364  L 28.1875 13.6363636363636  Z M 14.4375 3  L 33 3  L 33 6  L 14.4375 6  L 14.4375 3  Z " fill-rule="nonzero" fill="#ffffff" stroke="none" transform="matrix(1 0 0 1 346 680 )" />
  </g>
</svg>