<?xml version="1.0" encoding="utf-8"?>
<svg version="1.1" xmlns:xlink="http://www.w3.org/1999/xlink" width="40px" height="31px" xmlns="http://www.w3.org/2000/svg">
  <g transform="matrix(1 0 0 1 -34 -679 )">
    <path d="M 8 15.5  L 13 15.5  L 13 25.8333333333333  L 8 25.8333333333333  L 8 15.5  Z M 15 5.16666666666667  L 20 5.16666666666667  L 20 25.8333333333333  L 15 25.8333333333333  L 15 5.16666666666667  Z M 3 28  L 40 28  L 40 31  L 0 31  L 0 0  L 3 0  L 3 28  Z M 22 10.3333333333333  L 27 10.3333333333333  L 27 25.8333333333333  L 22 25.8333333333333  L 22 10.3333333333333  Z M 30 2.58333333333333  L 35 2.58333333333333  L 35 25.8333333333333  L 30 25.8333333333333  L 30 2.58333333333333  Z " fill-rule="nonzero" fill="#ffffff" stroke="none" transform="matrix(1 0 0 1 34 679 )" />
  </g>
</svg>