<?xml version="1.0" encoding="utf-8"?>
<svg version="1.1" xmlns:xlink="http://www.w3.org/1999/xlink" width="20px" height="20px" xmlns="http://www.w3.org/2000/svg">
  <g transform="matrix(1 0 0 1 -32 -582 )">
    <path d="M 13.7964494176917 8.66677058468769  C 13.7964494176917 8.66677058468769  14.1452499449387 8.66677058468769  14.1452499449387 8.66677058468769  C 14.5897058824478 8.66797493556913  15.0299880687527 8.58224646705757  15.4406036193783 8.4145493369884  C 15.851219170004 8.24685220691922  16.2240089587736 8.00051832213353  16.5373868113671 7.68981144857333  C 16.5373868113671 7.68981144857333  19.7928583990059 4.48260145855366  19.7928583990059 4.48260145855366  C 20.0503366128431 4.22877549147532  20.0740130295066 3.81573524337073  19.8287956810749 3.54940554630956  C 19.7672352952272 3.48249334012839  19.6925271394831 3.42860830962266  19.6092031853131 3.39102023647646  C 19.5258792311431 3.35343216333026  19.4356768228981 3.33292471480691  19.344070090409 3.33074206052646  C 19.2524633579199 3.32855940624601  19.1613619491076 3.34474713940049  19.07629327702 3.37832303152144  C 18.9912246049325 3.41189892364239  18.9139616771862 3.46216273764808  18.849194117449 3.52606501185168  C 18.849194117449 3.52606501185168  15.9475976030802 6.38442048818193  15.9475976030802 6.38442048818193  C 15.8501707929717 6.48034734693922  15.7181035917186 6.53422906342834  15.5804058785255 6.53422906342834  C 15.4427081653323 6.53422906342834  15.3106396738311 6.48034734693922  15.2132128637226 6.38442048818193  C 15.0106971652732 6.18519419171399  15.0216896562547 5.84842678593835  15.2237825766695 5.64920048947041  C 15.2237825766695 5.64920048947041  18.1126972418494 2.80126479806293  18.1126972418494 2.80126479806293  C 18.1774524887887 2.73742231030875  18.2283837598738 2.66128219757423  18.2624034458916 2.57745946895093  C 18.2964231319094 2.49363674032763  18.3128221756592 2.40387703294398  18.3106084074893 2.31362058080507  C 18.3083946393194 2.22336412866615  18.2876136450582 2.13449084867953  18.2495241887339 2.0523869568765  C 18.2114347324096 1.97028306507348  18.1568307245698 1.89665851949223  18.0890211880683 1.83597592917752  C 17.9665982591875 1.72651056235422  17.8069873240053 1.66627882844037  17.6417102136174 1.66717544522735  C 17.454389566176 1.66730264083794  17.2747882618093 1.74076280128197  17.1423970772266 1.8714032933109  C 17.1423970772266 1.8714032933109  14.2560203301822 4.71642145765948  14.2560203301822 4.71642145765948  C 14.1585935200737 4.81234831641676  14.0265263188207 4.86622939693269  13.8888286056275 4.86622939693269  C 13.7511308924343 4.86622939693269  13.6190636911813 4.81234831641676  13.5216368810728 4.71642145765948  C 13.319543960658 4.51719516119154  13.3301136736049 4.1804274374293  13.5322065940197 3.98120114096136  C 13.5322065940197 3.98120114096136  16.4211199689515 1.13409921042019  16.4211199689515 1.13409921042019  C 16.4858752158908 1.07025672266601  16.5368064869758 0.994116768924798  16.5708261729936 0.910294040301495  C 16.6048458590114 0.826471311678192  16.6212461930094 0.736711524797899  16.6190324248395 0.646455072658984  C 16.6168186566696 0.55619862052007  16.5960363721602 0.46732518154014  16.5579469158359 0.385221289737116  C 16.5198574595117 0.303117397934092  16.4652534516719 0.229492951723656  16.3974439151703 0.168810361408943  C 16.2750209862896 0.0593449945856421  16.1154113413555 -0.000886748561126369  15.9501342309676 0  C 15.7628320905233 0.00022844760356033  15.5832648265319 0.0736746135651939  15.4508210945769 0.204237646045681  C 15.4508210945769 0.204237646045681  12.1974629334282 3.41144737770124  12.1974629334282 3.41144737770124  C 11.8822536340485 3.72044332435784  11.6323589142665 4.08801550318231  11.4622485645022 4.49287878547943  C 11.2921382147378 4.89774206777656  11.2051922563803 5.3318522073962  11.206446544309 5.77007037615843  C 11.206446544309 5.77007037615843  11.206446544309 6.11308951774343  11.206446544309 6.11308951774343  C 11.2065164859192 6.20078867195631  11.1890384833409 6.28764008382953  11.1550133818088 6.36867124783602  C 11.1209882802768 6.44970241184251  11.0710842407702 6.52332191435502  11.0081586262057 6.58531424676002  C 11.0081586262057 6.58531424676002  9.50260868824727 8.06992499904445  9.50260868824727 8.06992499904445  C 9.48690242050515 8.08542571298796  9.46825117141228 8.09772261752992  9.44772088629211 8.10611251014616  C 9.42719060117194 8.1145024027624  9.40518384375121 8.11882116261879  9.38295946027371 8.11882116261879  C 9.36073507679622 8.11882116261879  9.33872896449956 8.1145024027624  9.3181986793794 8.10611251014616  C 9.29766839425923 8.09772261752992  9.27901714516635 8.08542571298796  9.26331087742423 8.06992499904445  C 9.26331087742423 8.06992499904445  1.93723149129334 0.847346843820818  1.93723149129334 0.847346843820818  C 1.81078849186053 0.722555874300024  1.63934536614469 0.652229598927963  1.4604270566588 0.651760917577046  C 1.2815087471729 0.65129223622613  1.10968905043477 0.720719263192612  0.982575101797354 0.844846038201765  C 0.342050513344585 1.4704499345043  1.4509851890926E-05 2.3536309268171  1.4509851890926E-05 3.39852694615272  C -0.0042133753898611 5.12404339296027  0.915774438558189 7.10797037865781  2.40103054701232 8.57007467533727  C 2.40103054701232 8.57007467533727  6.01375830323077 12.1315576707176  6.01375830323077 12.1315576707176  C 6.52723469530209 12.6367223931824  7.22301016960699 12.9204678740679  7.94843832878284 12.9205434798024  C 8.1797044455952 12.9206369343253  8.41002884252999 12.8915024740868  8.63377880011308 12.8338514289014  C 8.68995862432193 12.8193436715925  8.74777824810459 12.8119211433567  8.80585339142375 12.811761535743  C 8.97567526992314 12.81178754132  9.13921872022349 12.8750562518296  9.26373343369744 12.98889787943  C 9.26373343369744 12.98889787943  9.74528952975228 13.4273619710794  9.74528952975228 13.4273619710794  C 9.86948929163376 13.5524500295187  9.93926713749927 13.7203824696722  9.93977250602449 13.8954191677108  C 9.93977250602449 13.8954191677108  9.93977250602449 14.1263206857979  9.93977250602449 14.1263206857979  C 9.93853679573205 14.6512309452094  10.1477961529187 15.1553490942756  10.5219518306493 15.5288234820131  C 10.5219518306493 15.5288234820131  14.329163208264 19.3453826087913  14.329163208264 19.3453826087913  C 14.329163208264 19.3453826087913  14.3329681500951 19.3495507771497  14.3329681500951 19.3495507771497  C 14.7555318825482 19.7660652872281  15.3286289084359 20.0000390879798  15.926184644576 20  C 16.5237403807161 19.9999609120202  17.0968057148833 19.7659119779383  17.5193134021818 19.3493421779398  C 17.9418210894804 18.9327723779413  18.1791614355672 18.3678045515076  18.1791217977492 17.7787249538649  C 18.1790821599312 17.1896453562223  17.9416655339363 16.624708771972  17.5191018014832 16.2081942221453  C 17.5191018014832 16.2081942221453  11.8123032129631 10.5823434887442  11.8123032129631 10.5823434887442  C 11.7965794626103 10.566860009426  11.7841049754534 10.5484739583562  11.7755943624929 10.5282348888157  C 11.7670837495324 10.5079958192751  11.7627034931018 10.4863012207251  11.7627034931018 10.4643920830749  C 11.7627034931018 10.4424829454247  11.7670837495324 10.4207883468746  11.7755943624929 10.4005492773341  C 11.7841049754534 10.3803102077936  11.7965794626103 10.3619228847774  11.8123032129631 10.3464394054592  C 11.8123032129631 10.3464394054592  13.3178525057974 8.86224585159451  13.3178525057974 8.86224585159451  C 13.3806865530627 8.80026246753118  13.4552958838616 8.75109458689105  13.5374166160997 8.71755368074896  C 13.6195373483378 8.68401277460687  13.7075595143899 8.66675643255177  13.7964494176917 8.66677058468769  Z " fill-rule="nonzero" fill="#1a51b8" stroke="none" transform="matrix(1 0 0 1 32 582 )" />
  </g>
</svg>