<?xml version="1.0" encoding="utf-8"?>
<svg version="1.1" xmlns:xlink="http://www.w3.org/1999/xlink" width="20px" height="14px" xmlns="http://www.w3.org/2000/svg">
  <g transform="matrix(1 0 0 1 -329 -192 )">
    <path d="M 7.93756967670011 3.98888888888889  L 7.93756967670011 9.57777777777778  L 13.3333333333333 6.8  L 7.93756967670011 3.98888888888889  Z M 3.01003344481605 0.199999999999999  C 4.87551096246748 0.0666666666666664  7.20549981419547 0  10 0  C 11.2486064659978 0  12.4544778892605 0.0166666666666666  13.6176142697882 0.0499999999999998  C 14.7807506503159 0.083333333333333  15.6335934596804 0.118518518518518  16.1761426978818 0.155555555555555  L 16.9899665551839 0.199999999999999  C 16.9973987365292 0.199999999999999  17.0605722779636 0.205555555555555  17.1794871794872 0.216666666666666  C 17.2984020810108 0.227777777777779  17.3838721664809 0.23888888888889  17.4358974358974 0.250000000000001  C 17.487922705314 0.261111111111112  17.5752508361204 0.277777777777778  17.6978818283166 0.3  C 17.8205128205128 0.322222222222223  17.9264214046823 0.35185185185185  18.015607580825 0.388888888888889  C 18.1047937569677 0.425925925925925  18.2088442958008 0.474074074074072  18.3277591973244 0.533333333333333  C 18.446674098848 0.592592592592591  18.561872909699 0.664814814814815  18.6733556298774 0.75  C 18.7848383500557 0.835185185185183  18.8926049795615 0.933333333333333  18.9966555183947 1.04444444444444  C 19.041248606466 1.08888888888889  19.0988480118915 1.15740740740741  19.1694537346711 1.25  C 19.2400594574508 1.34259259259259  19.3478260869565 1.55925925925926  19.4927536231884 1.9  C 19.6376811594203 2.24074074074074  19.7361575622445 2.61481481481481  19.7881828316611 3.02222222222222  C 19.8476402824229 3.4962962962963  19.8940914158305 4.00185185185185  19.9275362318841 4.53888888888889  C 19.9609810479376 5.07592592592593  19.9814195466369 5.4962962962963  19.9888517279822 5.8  L 19.9888517279822 6.24444444444444  L 19.9888517279822 7.75555555555556  C 19.9962839093274 8.82962962962963  19.9293942772204 9.9037037037037  19.7881828316611 10.9777777777778  C 19.7361575622445 11.3851851851852  19.6432552954292 11.7537037037037  19.5094760312152 12.0833333333333  C 19.3756967670011 12.412962962963  19.2567818654775 12.6407407407407  19.1527313266444 12.7666666666667  L 18.9966555183947 12.9555555555556  C 18.8926049795615 13.0666666666667  18.7848383500557 13.1648148148148  18.6733556298774 13.25  C 18.561872909699 13.3351851851852  18.446674098848 13.4055555555556  18.3277591973244 13.4611111111111  C 18.2088442958008 13.5166666666667  18.1047937569677 13.562962962963  18.015607580825 13.6  C 17.9264214046823 13.637037037037  17.8205128205128 13.6666666666667  17.6978818283166 13.6888888888889  C 17.5752508361204 13.7111111111111  17.4860646599777 13.7277777777778  17.4303232998885 13.7388888888889  C 17.3745819397993 13.75  17.2891118543292 13.7611111111111  17.1739130434783 13.7722222222222  C 17.0587142326273 13.7833333333333  16.9973987365292 13.7888888888889  16.9899665551839 13.7888888888889  C 15.1244890375325 13.9296296296296  12.7945001858045 14  10 14  C 8.46153846153846 13.9851851851852  7.1256038647343 13.9611111111111  5.99219620958751 13.9277777777778  C 4.85878855444073 13.8944444444444  4.11371237458194 13.8666666666667  3.75696767001115 13.8444444444444  L 3.21070234113712 13.8  L 2.80936454849498 13.7555555555556  C 2.54180602006689 13.7185185185185  2.33927907840951 13.6814814814815  2.20178372352285 13.6444444444444  C 2.06428836863619 13.6074074074074  1.87476774433296 13.5296296296296  1.63322185061315 13.4111111111111  C 1.39167595689335 13.2925925925926  1.18171683389075 13.1407407407407  1.00334448160535 12.9555555555556  C 0.958751393534002 12.9111111111111  0.90115198810851 12.8425925925926  0.830546265328874 12.75  C 0.759940542549238 12.6574074074074  0.652173913043478 12.4407407407407  0.507246376811594 12.1  C 0.36231884057971 11.7592592592593  0.263842437755481 11.3851851851852  0.211817168338907 10.9777777777778  C 0.152359717577109 10.5037037037037  0.105908584169454 9.99814814814815  0.072463768115942 9.46111111111111  C 0.0390189520624303 8.92407407407407  0.0185804533630621 8.5037037037037  0.0111482720178372 8.2  L 0.0111482720178372 7.75555555555556  L 0.0111482720178372 6.24444444444444  C 0.00371609067261241 5.17037037037037  0.0706057227796358 4.09629629629629  0.211817168338907 3.02222222222222  C 0.263842437755481 2.61481481481481  0.356744704570792 2.24629629629629  0.490523968784838 1.91666666666667  C 0.624303232998885 1.58703703703704  0.743218134522482 1.35925925925926  0.84726867335563 1.23333333333333  L 1.00334448160535 1.04444444444444  C 1.1073950204385 0.933333333333333  1.21516164994426 0.835185185185183  1.32664437012263 0.75  C 1.438127090301 0.664814814814815  1.55332590115199 0.592592592592591  1.67224080267559 0.533333333333333  C 1.79115570419918 0.474074074074072  1.89520624303233 0.425925925925925  1.98439241917503 0.388888888888889  C 2.07357859531773 0.35185185185185  2.17948717948718 0.322222222222223  2.30211817168339 0.3  C 2.4247491638796 0.277777777777778  2.51207729468599 0.261111111111112  2.56410256410256 0.250000000000001  C 2.61612783351914 0.23888888888889  2.70159791898922 0.227777777777779  2.82051282051282 0.216666666666666  C 2.93942772203642 0.205555555555555  3.00260126347083 0.199999999999999  3.01003344481605 0.199999999999999  Z " fill-rule="nonzero" fill="#1a51b8" stroke="none" transform="matrix(1 0 0 1 329 192 )" />
  </g>
</svg>