<?xml version="1.0" encoding="utf-8"?>
<svg version="1.1" xmlns:xlink="http://www.w3.org/1999/xlink" width="11px" height="20px" xmlns="http://www.w3.org/2000/svg">
  <g transform="matrix(1 0 0 1 -72 -268 )">
    <path d="M 10.8468950749465 12.1763392857143  C 10.9489650249822 12.5037202380952  11 12.8534226190476  11 13.2254464285714  C 11 14.3638392857143  10.609386152748 15.3441220238095  9.82815845824411 16.1662946428571  C 9.04693076374019 16.9884672619048  8.03211991434689 17.4962797619048  6.78372591006424 17.6897321428571  L 6.78372591006424 19.6428571428571  C 6.78372591006424 19.7470238095238  6.74839400428266 19.8325892857143  6.67773019271949 19.8995535714286  C 6.60706638115632 19.9665178571429  6.51677373304782 20  6.406852248394 20  L 4.8169164882227 20  C 4.71484653818701 20  4.62651677373305 19.9646577380952  4.55192719486081 19.8939732142857  C 4.47733761598858 19.8232886904762  4.44004282655246 19.7395833333333  4.44004282655246 19.6428571428571  L 4.44004282655246 17.6897321428571  C 3.92184154175589 17.6227678571429  3.42130620985011 17.5074404761905  2.93843683083512 17.34375  C 2.45556745182013 17.1800595238095  2.05710206995004 17.0145089285714  1.74304068522484 16.8470982142857  C 1.42897930049964 16.6796875  1.13847251962884 16.5011160714286  0.87152034261242 16.3113839285714  C 0.604568165596003 16.1216517857143  0.422019985724483 15.9821428571429  0.323875802997859 15.8928571428571  C 0.225731620271235 15.8035714285714  0.157030692362598 15.7366071428571  0.117773019271949 15.6919642857143  C -0.0157030692362598 15.5357142857143  -0.0235546038543897 15.3831845238095  0.0942184154175589 15.234375  L 1.30728051391863 13.7276785714286  C 1.36224125624554 13.6532738095238  1.45253390435403 13.608630952381  1.57815845824411 13.59375  C 1.69593147751606 13.578869047619  1.79014989293362 13.6123511904762  1.86081370449679 13.6941964285714  L 1.88436830835118 13.7165178571429  C 2.77159172019986 14.453125  3.72555317630264 14.9181547619048  4.74625267665953 15.1116071428571  C 5.03675945753034 15.171130952381  5.32726623840114 15.2008928571429  5.61777301927195 15.2008928571429  C 6.25374732334047 15.2008928571429  6.81316916488223 15.0409226190476  7.29603854389722 14.7209821428571  C 7.77890792291221 14.4010416666667  8.0203426124197 13.9471726190476  8.0203426124197 13.359375  C 8.0203426124197 13.1510416666667  7.96145610278373 12.953869047619  7.84368308351178 12.7678571428571  C 7.72591006423983 12.5818452380952  7.59439685938615 12.4255952380952  7.44914346895075 12.2991071428571  C 7.30389007851535 12.172619047619  7.07423269093505 12.0331101190476  6.76017130620985 11.8805803571429  C 6.44610992148465 11.7280505952381  6.18700927908637 11.6090029761905  5.98286937901499 11.5234375  C 5.77872947894361 11.4378720238095  5.46466809421841 11.3169642857143  5.0406852248394 11.1607142857143  C 4.73447537473233 11.0416666666667  4.49304068522484 10.9486607142857  4.31638115631692 10.8816964285714  C 4.13972162740899 10.8147321428571  3.8982869379015 10.7161458333333  3.59207708779443 10.5859375  C 3.28586723768737 10.4557291666667  3.04050678087081 10.3404017857143  2.85599571734475 10.2399553571429  C 2.6714846538187 10.1395089285714  2.44967880085653 10.0074404761905  2.19057815845824 9.84375  C 1.93147751605996 9.68005952380952  1.72144896502498 9.52194940476191  1.56049250535332 9.36941964285714  C 1.39953604568166 9.21688988095238  1.22876516773733 9.03459821428571  1.04817987152034 8.82254464285714  C 0.867594575303355 8.61049107142857  0.728229835831549 8.39471726190476  0.630085653104925 8.17522321428571  C 0.531941470378301 7.95572916666667  0.449500356887937 7.70833333333333  0.382762312633833 7.43303571428571  C 0.316024268379729 7.15773809523809  0.282655246252677 6.86755952380952  0.282655246252677 6.5625  C 0.282655246252677 5.53571428571429  0.667380442541042 4.63541666666667  1.43683083511777 3.86160714285714  C 2.2062812276945 3.08779761904762  3.20735189150607 2.58928571428571  4.44004282655246 2.36607142857143  L 4.44004282655246 0.357142857142858  C 4.44004282655246 0.260416666666665  4.47733761598858 0.176711309523809  4.55192719486081 0.106026785714286  C 4.62651677373305 0.0353422619047628  4.71484653818701 0  4.8169164882227 0  L 6.406852248394 0  C 6.51677373304782 0  6.60706638115632 0.0334821428571419  6.67773019271949 0.100446428571428  C 6.74839400428266 0.167410714285714  6.78372591006424 0.252976190476188  6.78372591006424 0.357142857142858  L 6.78372591006424 2.32142857142857  C 7.23126338329764 2.36607142857143  7.66506067094932 2.4516369047619  8.08511777301927 2.578125  C 8.50517487508922 2.7046130952381  8.84671663097787 2.82924107142857  9.10974304068523 2.95200892857143  C 9.37276945039258 3.07477678571429  9.6220556745182 3.21428571428571  9.8576017130621 3.37053571428571  C 10.093147751606 3.52678571428571  10.2462526766595 3.63467261904762  10.3169164882227 3.69419642857143  C 10.3875802997859 3.75372023809524  10.4464668094218 3.80580357142857  10.4935760171306 3.85044642857143  C 10.6270521056388 3.984375  10.6466809421842 4.12574404761905  10.5524625267666 4.27455357142857  L 9.59850107066381 5.90401785714286  C 9.53568879371877 6.015625  9.44539614561028 6.07514880952381  9.32762312633833 6.08258928571429  C 9.21770164168451 6.10491071428571  9.11170592433976 6.07886904761905  9.00963597430407 6.00446428571429  C 8.98608137044968 5.98214285714286  8.92915774446824 5.9375  8.83886509635974 5.87053571428571  C 8.74857244825125 5.80357142857143  8.59546752319772 5.70498511904762  8.37955032119914 5.57477678571429  C 8.16363311920057 5.44456845238095  7.93397573162027 5.32552083333333  7.69057815845824 5.21763392857143  C 7.44718058529622 5.10974702380952  7.15471092077088 5.01302083333333  6.81316916488223 4.92745535714286  C 6.47162740899358 4.84188988095238  6.13597430406852 4.79910714285714  5.80620985010707 4.79910714285714  C 5.06031406138473 4.79910714285714  4.45182012847966 4.95907738095238  3.98072805139186 5.27901785714286  C 3.50963597430407 5.59895833333333  3.27408993576017 6.01190476190476  3.27408993576017 6.51785714285714  C 3.27408993576017 6.71130952380952  3.30745895788722 6.88988095238095  3.37419700214133 7.05357142857143  C 3.44093504639543 7.2172619047619  3.55674518201285 7.37165178571429  3.72162740899358 7.51674107142857  C 3.8865096359743 7.66183035714286  4.04157744468237 7.78459821428571  4.18683083511777 7.88504464285714  C 4.33208422555318 7.98549107142857  4.55192719486081 8.10081845238095  4.84635974304069 8.23102678571429  C 5.14079229122056 8.36123511904762  5.37830121341899 8.46168154761905  5.55888650963597 8.53236607142857  C 5.73947180585296 8.60305059523809  6.01427551748751 8.70535714285714  6.38329764453962 8.83928571428571  C 6.7994289793005 8.98809523809524  7.11741613133476 9.10528273809524  7.3372591006424 9.19084821428571  C 7.55710206995004 9.27641369047619  7.85546038543897 9.40662202380952  8.23233404710921 9.58147321428571  C 8.60920770877944 9.75632440476191  8.90560314061385 9.91443452380952  9.12152034261242 10.0558035714286  C 9.33743754461099 10.1971726190476  9.58083511777302 10.3831845238095  9.8517130620985 10.6138392857143  C 10.122591006424 10.844494047619  10.3306566738044 11.0807291666667  10.4759100642398 11.3225446428571  C 10.6211634546752 11.5643601190476  10.7448251249108 11.8489583333333  10.8468950749465 12.1763392857143  Z " fill-rule="nonzero" fill="#1a51b8" stroke="none" transform="matrix(1 0 0 1 72 268 )" />
  </g>
</svg>