<?xml version="1.0" encoding="utf-8"?>
<svg version="1.1" xmlns:xlink="http://www.w3.org/1999/xlink" width="372px" height="44px" xmlns="http://www.w3.org/2000/svg">
  <defs>
    <mask fill="white" id="clip19">
      <path d="M 0 39  L 0 5  C 0 2.20000000000005  2.20000000000005 0  5 0  L 177.274509803925 0  L 367 0  C 369.8 0  372 2.20000000000005  372 5  L 372 39  C 372 41.8  369.8 44  367 44  L 5 44  C 2.20000000000005 44  0 41.8  0 39  Z " fill-rule="evenodd" />
    </mask>
  </defs>
  <g transform="matrix(1 0 0 1 -21 -672 )">
    <path d="M 0 39  L 0 5  C 0 2.20000000000005  2.20000000000005 0  5 0  L 177.274509803925 0  L 367 0  C 369.8 0  372 2.20000000000005  372 5  L 372 39  C 372 41.8  369.8 44  367 44  L 5 44  C 2.20000000000005 44  0 41.8  0 39  Z " fill-rule="nonzero" fill="#1a51b8" stroke="none" transform="matrix(1 0 0 1 21 672 )" />
    <path d="M 0 39  L 0 5  C 0 2.20000000000005  2.20000000000005 0  5 0  L 177.274509803925 0  L 367 0  C 369.8 0  372 2.20000000000005  372 5  L 372 39  C 372 41.8  369.8 44  367 44  L 5 44  C 2.20000000000005 44  0 41.8  0 39  Z " stroke-width="2" stroke="#ffffff" fill="none" transform="matrix(1 0 0 1 21 672 )" mask="url(#clip19)" />
  </g>
</svg>