<?xml version="1.0" encoding="utf-8"?>
<svg version="1.1" xmlns:xlink="http://www.w3.org/1999/xlink" width="24px" height="9px" xmlns="http://www.w3.org/2000/svg">
  <g transform="matrix(1 0 0 1 -330 -280 )">
    <path d="M 24 0  C 24 0  19.6 0  19.6 0  C 18.0062065124512 0.00148337474092841  16.4456492424011 0.445945656817892  15.1001159667969 1.28161189867103  C 13.7545826911926 2.11727814052416  12.6794642925262 3.30974684590879  12 4.72010869565217  C 11.3205357074738 3.30974684590879  10.2454173088074 2.11727814052416  8.89988403320313 1.28161189867103  C 7.55435075759888 0.445945656817892  5.99379348754883 0.00148337474092841  4.4 0  C 4.4 0  0 0  0 0  C 0 0  0 0.782608695652174  0 0.782608695652174  C 0 5.31371746892514  3.7681999206543 9  8.4 9  C 8.4 9  15.6 9  15.6 9  C 20.2318000793457 9  24 5.31371746892514  24 0.782608695652174  C 24 0.782608695652174  24 0  24 0  Z M 11.1531997680664 7.43478260869565  C 11.1531997680664 7.43478260869565  8.4 7.43478260869565  8.4 7.43478260869565  C 4.92094993591309 7.43478260869565  2.04380004405975 4.86591861558997  1.64680004119873 1.56521739130435  C 1.64680004119873 1.56521739130435  4.4 1.56521739130435  4.4 1.56521739130435  C 7.87905006408692 1.56521739130435  10.7561997652054 4.13408138441003  11.1531997680664 7.43478260869565  Z M 22.3531997680664 1.56521739130435  C 21.9561997652054 4.86591861558997  19.0790500640869 7.43478260869565  15.6 7.43478260869565  C 15.6 7.43478260869565  12.8468002319336 7.43478260869565  12.8468002319336 7.43478260869565  C 13.2438002347946 4.13408138441003  16.1209499359131 1.56521739130435  19.6 1.56521739130435  C 19.6 1.56521739130435  22.3531997680664 1.56521739130435  22.3531997680664 1.56521739130435  Z " fill-rule="nonzero" fill="#194eb2" stroke="none" transform="matrix(1 0 0 1 330 280 )" />
  </g>
</svg>