<?xml version="1.0" encoding="utf-8"?>
<svg version="1.1" xmlns:xlink="http://www.w3.org/1999/xlink" width="9px" height="5px" xmlns="http://www.w3.org/2000/svg">
  <g transform="matrix(1 0 0 1 -162 -281 )">
    <path d="M 4.5 5  C 5.09094842076302 5  5.67611088752747 4.8706716299057  6.2220760345459 4.61939811706543  C 6.76804118156433 4.36812460422516  7.26411689221859 3.9998268187046  7.68198051452637 3.5355339050293  C 8.09984413683414 3.07124099135399  8.43131214380264 2.5200457572937  8.65745830535889 1.91341781616211  C 8.88360446691513 1.30678987503052  9 0.656609356403351  9 0  C 9 0  0 0  0 0  C 0 0.656609356403351  0.116395533084869 1.30678987503052  0.342541694641113 1.91341781616211  C 0.568687856197357 2.5200457572937  0.900155863165855 3.07124099135399  1.31801948547363 3.5355339050293  C 2.1619332075119 4.47321581840515  3.30652577877045 5  4.5 5  Z " fill-rule="nonzero" fill="#1a51b8" stroke="none" transform="matrix(1 0 0 1 162 281 )" />
  </g>
</svg>