<?xml version="1.0" encoding="utf-8"?>
<svg version="1.1" xmlns:xlink="http://www.w3.org/1999/xlink" width="18px" height="2px" xmlns="http://www.w3.org/2000/svg">
  <g transform="matrix(1 0 0 1 -68 -206 )">
    <path d="M 17.7707798170007 0.292892456054688  C 17.624012220165 0.105356082320213  17.4249520431394 0  17.2173913043478 0  C 17.2173913043478 0  0.782608695652174 0  0.782608695652174 0  C 0.575047956860584 0  0.375988339600356 0.105356082320213  0.22922074276468 0.292892456054688  C 0.0824531459290048 0.480428829789162  0 0.734783500432968  0 1  C 0 1.26521649956703  0.0824531459290048 1.51957117021084  0.22922074276468 1.70710754394531  C 0.375988339600356 1.89464391767979  0.575047956860584 2  0.782608695652174 2  C 0.782608695652174 2  17.2173913043478 2  17.2173913043478 2  C 17.4249520431394 2  17.624012220165 1.89464391767979  17.7707798170007 1.70710754394531  C 17.9175474138364 1.51957117021084  18 1.26521649956703  18 1  C 18 0.734783500432968  17.9175474138364 0.480428829789162  17.7707798170007 0.292892456054688  Z " fill-rule="nonzero" fill="#1a51b8" stroke="none" transform="matrix(1 0 0 1 68 206 )" />
  </g>
</svg>