<?xml version="1.0" encoding="utf-8"?>
<svg version="1.1" xmlns:xlink="http://www.w3.org/1999/xlink" width="5px" height="3px" xmlns="http://www.w3.org/2000/svg">
  <g transform="matrix(1 0 0 1 -162 -104 )">
    <path d="M 0.000347258374385361 0.28125  C 0.131178072918177 1.78874999284744  1.21102036496541 3  2.49980155984687 3  C 3.79170714428649 3  4.87076871812071 1.79156255722046  4.99925629636304 0.28125  C 5.01097248950934 0.140625  4.88209407159745 0  4.76493214479004 0  C 4.70157424588421 7.55206638132222E-05  4.63878826375324 0.0143844690173864  4.57981668182082 0.0421875715255737  C 4.57200588658394 0.0459375714417547  3.75577740926309 0.421875  2.49980155984687 0.421875  C 1.24382571043065 0.421875  0.426035818725114 0.0468750715954229  0.419787182768387 0.0421875715255737  C 0.353229054634388 0.0143954381346703  0.283271735692256 0.000136830160045065  0.212800974269642 0  C 0.212800974269642 0  0.210457831080114 0  0.210457831080114 0  C 0.181261329580759 0.00185706233605742  0.152657250431861 0.0106112658977509  0.126284652313782 0.0257610082626343  C 0.0999120541957042 0.0409107506275177  0.0762891201502538 0.0621582241728902  0.0567704065082292 0.0882856249809265  C 0.0372516928662046 0.114413025788963  0.0222207020767924 0.144906738772988  0.0125385158444928 0.178019285202026  C 0.00285632961219312 0.211131831631064  -0.00128661120700849 0.246212217025459  0.000347258374385361 0.28125  Z " fill-rule="nonzero" fill="#1a51b8" stroke="none" transform="matrix(1 0 0 1 162 104 )" />
  </g>
</svg>