<?xml version="1.0" encoding="utf-8"?>
<svg version="1.1" xmlns:xlink="http://www.w3.org/1999/xlink" width="20px" height="18px" xmlns="http://www.w3.org/2000/svg">
  <g transform="matrix(1 0 0 1 -155 -105 )">
    <path d="M 19.553610681911 1.88055312147133  C 19.553610681911 1.88055312147133  14.166606109237 0.01035655867109  14.166606109237 0.01035655867109  C 14.1435428677621 0.00237556141978561  14.1189919931912 -0.000480215483212502  14.0946924925508 0.00199140975264791  C 14.0703929919104 0.00446303498850832  14.0469389955738 0.0122016361246504  14.025989532243 0.0246593878304631  C 14.0050400689121 0.0371171395362759  13.9871073410959 0.0539895600562353  13.9734619223465 0.0740821584167558  C 13.9598165035971 0.0941747567772763  13.9507923895347 0.116996308180149  13.9470264585424 0.140931467803931  C 13.7911671612508 1.06696675302684  13.3091713162375 1.90816485784707  12.5867597235682 2.51492516113412  C 11.8643481308989 3.12168546442117  10.9483494555967 3.45467532391107  10.0016669982226 3.45467532391107  C 9.05498454084848 3.45467532391107  8.13898522977269 3.12168546442117  7.41657363710339 2.51492516113412  C 6.69416204443408 1.90816485784707  6.21216747096788 1.06696675302684  6.05630817367629 0.140931467803931  C 6.05265303056945 0.116597889198129  6.04356620651206 0.0933804544037926  6.02971122339296 0.0729729317554396  C 6.01585624027386 0.0525654091070866  5.99758207971507 0.0354825234877209  5.9762223239036 0.0229707214637329  C 5.95486256809214 0.010458919439745  5.9309561841128 0.00283386541063542  5.90624654496817 0.0006515736547102  C 5.88153690582353 -0.00153071810121502  5.85664753647925 0.00178484086090179  5.83339452653658 0.01035655867109  C 5.83339452653658 0.01035655867109  0.446390430692705 1.88055312147133  0.446390430692705 1.88055312147133  C 0.295611798440587 1.93289881346742  0.168800020675356 2.03719921161242  0.0890397763609352 2.17446776455931  C 0.00927953204651497 2.3117363175062  -0.0181254739890422 2.47284531302389  0.0118135565006541 2.62846633988444  C 0.0118135565006541 2.62846633988444  0.704720001836114 6.26472996540456  0.704720001836114 6.26472996540456  C 0.731386467499002 6.40332855197205  0.802065066764805 6.52983151202027  0.906420587974814 6.62573981721063  C 1.01077610918482 6.72164812240098  1.14333449497106 6.78193047883632  1.28471156639278 6.79777288065251  C 1.28471156639278 6.79777288065251  3.32134836632585 7.02586594745432  3.32134836632585 7.02586594745432  C 3.40448607313424 7.03516283985359  3.48105824593196 7.07512537133163  3.53586153767807 7.13781886873137  C 3.59066482942418 7.20051236613111  3.61969118216193 7.28135188446459  3.6171772913644 7.36428647790472  C 3.6171772913644 7.36428647790472  3.31176535175347 17.3185574690556  3.31176535175347 17.3185574690556  C 3.30771632458702 17.4468524697365  3.34141233619056 17.5735411645638  3.40874147928354 17.6831643867152  C 3.47607062237652 17.7927876088665  3.57412095884059 17.8806044517526  3.69092638626129 17.9358959359636  C 3.78802024116988 17.9794017637515  3.89355240039161 18.0012639292416  4.00008843609945 17.9999432540006  C 4.00008843609945 17.9999432540006  15.9999125175609 17.9999432540006  15.9999125175609 17.9999432540006  C 16.1064485532687 18.0012639292416  16.211981348264 17.9794017637515  16.3090752031726 17.9358959359636  C 16.4258806305933 17.8806044517526  16.5239303312838 17.7927876088665  16.5912594743768 17.6831643867152  C 16.6585886174697 17.5735411645638  16.6922843111865 17.4468524697365  16.6882352840201 17.3185574690556  C 16.6882352840201 17.3185574690556  16.3828236622959 7.36428647790472  16.3828236622959 7.36428647790472  C 16.3803097714984 7.28135188446459  16.4093358063494 7.20051236613111  16.4641390980955 7.13781886873137  C 16.5189423898416 7.07512537133163  16.5955151984128 7.03516283985359  16.6786529052212 7.02586594745432  C 16.6786529052212 7.02586594745432  18.7152898640977 6.79777288065251  18.7152898640977 6.79777288065251  C 18.8566669355194 6.78193047883632  18.9892246855321 6.72164812240098  19.0935802067421 6.62573981721063  C 19.1979357279521 6.52983151202027  19.2686141682745 6.40332855197205  19.2952806339374 6.26472996540456  C 19.2952806339374 6.26472996540456  19.9881873276219 2.62846633988444  19.9881873276219 2.62846633988444  C 20.0181263581116 2.47284531302389  19.9907214315478 2.3117363175062  19.9109611872333 2.17446776455931  C 19.8312009429189 2.03719921161242  19.7043893141631 1.93289881346742  19.553610681911 1.88055312147133  Z " fill-rule="nonzero" fill="#1a51b8" stroke="none" transform="matrix(1 0 0 1 155 105 )" />
  </g>
</svg>