<?xml version="1.0" encoding="utf-8"?>
<svg version="1.1" xmlns:xlink="http://www.w3.org/1999/xlink" width="26px" height="23px" xmlns="http://www.w3.org/2000/svg">
  <g transform="matrix(1 0 0 1 -153 -266 )">
    <path d="M 24.8841401712697 10.2987277566262  C 24.168940707794 9.56957199463139  23.1963008699288 9.1502168673175  22.1752901267268 9.13080289706929  C 21.5351181020436 7.62686401814691  20.5356671719444 6.30311543832297  19.2646739286616 5.27575967331943  C 17.9936806853789 4.24840390831589  16.4900080865204 3.54885439790323  14.88565015522 3.2385186453848  C 14.88565015522 3.2385186453848  16.3349321149363 0.918959198502707  16.3349321149363 0.918959198502707  L 14.8650665626357 0  C 14.8650665626357 0  12.9527124525166 3.06074130655982  12.9527124525166 3.06074130655982  C 11.0047587859449 3.06978130228098  9.10213134075639 3.6494984459034  7.47990843965952 4.72826613892638  C 5.85768553856264 5.80703383194936  4.58695130521105 7.33758131301015  3.82471069979078 9.13080289706929  C 2.80369995658876 9.1502168673175  1.83105991209414 9.56957199463139  1.11586044861846 10.2987277566262  C 0.400660985142775 11.0278835186209  0 12.0086276976156  0 13.0301483525454  C 0 14.0516690074753  0.400660985142775 15.0324148400319  1.11586044861846 15.7615706020267  C 1.83105991209414 16.4907263640215  2.80369995658876 16.9100806645544  3.82471069979078 16.9294946348026  C 4.59019703955408 18.7300855243808  5.86823086910734 20.2656728555656  7.4996936163092 21.3450722092529  C 9.13115636351106 22.4244715629403  11.0439755963705 23  13 23  C 14.9560244036295 23  16.8688428099714 22.4244715629403  18.5003055571733 21.3450722092529  C 20.1317683043751 20.2656728555656  21.4098037869635 18.7300855243808  22.1752901267268 16.9294946348026  C 23.1963008699288 16.9100806645544  24.168940707794 16.4907263640215  24.8841401712697 15.7615706020267  C 25.5993396347454 15.0324148400319  26 14.0516690074753  26 13.0301483525454  C 26 12.0086276976156  25.5993396347454 11.0278835186209  24.8841401712697 10.2987277566262  Z M 23.6460218693996 14.5478412497132  C 23.2496041219447 14.9534166155351  22.7093140030062 15.1862869623794  22.1423567091988 15.1959350127148  C 22.1423567091988 15.1959350127148  21.0197524974181 15.217282497471  21.0197524974181 15.217282497471  C 21.0197524974181 15.217282497471  20.5802980854548 16.250786825885  20.5802980854548 16.250786825885  C 19.9480017913496 17.7384931005487  18.8921839670349 19.0072744908162  17.5443173613695 19.8991381131866  C 16.196450755704 20.7910017355571  14.6160890045575 21.2665412451911  13.000026448561 21.2665412451911  C 11.3839638925644 21.2665412451911  9.80360379445297 20.7910017355571  8.45573718878754 19.8991381131866  C 7.10787058312211 19.0072744908162  6.05205234554867 17.7384931005487  5.41975605144347 16.250786825885  C 5.41975605144347 16.250786825885  4.98024791584068 15.217282497471  4.98024791584068 15.217282497471  C 4.98024791584068 15.217282497471  3.8576441173187 15.1959350127148  3.8576441173187 15.1959350127148  C 3.29044191603548 15.185315933962  2.75005563694811 14.9524669284016  2.35268380414739 14.5474592769031  C 1.95531197134667 14.1424516254047  1.73269130829078 13.5976307121848  1.73269130829078 13.0301483525454  C 1.73269130829078 12.4626659929061  1.95531197134667 11.9178450796862  2.35268380414739 11.5128374281878  C 2.75005563694811 11.1078297766893  3.29044191603548 10.8749824246908  3.8576441173187 10.864363345938  C 3.8576441173187 10.864363345938  4.98024791584068 10.8430142076199  4.98024791584068 10.8430142076199  C 4.98024791584068 10.8430142076199  5.41975605144347 9.80951070598684  5.41975605144347 9.80951070598684  C 6.0520710455078 8.32182437741416  7.10789610185087 7.05306438010443  8.4557603312784 6.16121729335346  C 9.80362456070593 5.2693702066025  11.3839749472364 4.79384061834014  13.000026448561 4.79384061834014  C 14.6160779498856 4.79384061834014  16.1964299894511 5.2693702066025  17.5442942188786 6.16121729335346  C 18.8921584483062 7.05306438010443  19.9479830913905 8.32182437741416  20.5802980854548 9.80951070598684  C 20.5802980854548 9.80951070598684  21.0197524974181 10.8430142076199  21.0197524974181 10.8430142076199  C 21.0197524974181 10.8430142076199  22.1423567091988 10.864363345938  22.1423567091988 10.864363345938  C 22.5654097331118 10.872362002948  22.9768480419386 11.0041772019083  23.3258306310449 11.243520966842  C 23.6748132201511 11.4828647317757  23.9460438070822 11.8192474954558  24.1060053237902 12.2110994339282  C 24.2659668404981 12.6029513724007  24.3076489138026 13.0330982812248  24.2258999567922 13.4483870833231  C 24.1441509997818 13.8636758854213  23.9425541725816 14.2459067028805  23.6460218693996 14.5478412497132  Z " fill-rule="nonzero" fill="#1a51b8" stroke="none" transform="matrix(1 0 0 1 153 266 )" />
  </g>
</svg>