<?xml version="1.0" encoding="utf-8"?>
<svg version="1.1" xmlns:xlink="http://www.w3.org/1999/xlink" width="14px" height="14px" xmlns="http://www.w3.org/2000/svg">
  <g transform="matrix(1 0 0 1 -335 -267 )">
    <path d="M 0.236143926666462 10.1355709895189  C 0.884524182037166 10.7875033295731  1.72076762518096 11.2200482949428  2.62750485499812 11.3724961061158  C 2.77999256441111 12.279161540726  3.21253372136704 13.1153286954554  3.86442901048108 13.7636551765044  C 3.86442901048108 13.7636551765044  4.1006069846068 13.9997816349261  4.1006069846068 13.9997816349261  C 4.1006069846068 13.9997816349261  4.43454177385375 13.9997816349261  4.43454177385375 13.9997816349261  C 5.35394042961241 14.0023432596549  6.25106450227482 13.7169532113286  7 13.1836652379938  C 7.74891444933118 13.7170187112397  8.64603775310248 14.0024791132898  9.56545745725515 13.9999830843957  C 9.56545745725515 13.9999830843957  9.8993930153932 13.9999830843957  9.8993930153932 13.9999830843957  C 9.8993930153932 13.9999830843957  10.13557175841 13.763856625974  10.13557175841 13.763856625974  C 10.7874670475241 13.115530144925  11.2200083967028 12.2793629901955  11.3724961061158 11.3726975555853  C 12.279161540726 11.2202098461724  13.1153286954554 10.7876677281025  13.7636551765044 10.1357724389885  C 13.7636551765044 10.1357724389885  13.9997816349261 9.89959446486277  13.9997816349261 9.89959446486277  C 13.9997816349261 9.89959446486277  13.9997816349261 9.56565967561583  13.9997816349261 9.56565967561583  C 14.0023853894812 8.64619230021463  13.7169933378332 7.74899148260878  13.1836652379938 7  C 13.7170187112397 6.25108555066883  14.0024791132898 5.35396147800642  13.9999830843957 4.43454177385375  C 13.9999830843957 4.43454177385375  13.9999830843957 4.1006069846068  13.9999830843957 4.1006069846068  C 13.9999830843957 4.1006069846068  13.763856625974 3.86442901048108  13.763856625974 3.86442901048108  C 13.115530144925 3.21253372136704  12.2793629901955 2.77999217996555  11.3726975555853 2.62750447055257  C 11.2202098461724 1.72083903594236  10.7876684969936 0.884672049407844  10.1357732078796 0.236345568358813  C 10.1357732078796 0.236345568358813  9.89959446486277 0.000217959392789403  9.89959446486277 0.000217959392789403  C 9.89959446486277 0.000217959392789403  9.56565890672472 0.000217959392789403  9.56565890672472 0.000217959392789403  C 8.64619249243741 -0.0023790301970858  7.7489945581732 0.283013197741218  7 0.816335146451787  C 6.25108857817755 0.282975570132755  5.35396253523169 -0.0024864752100762  4.43454177385375 1.63177107039155E-05  C 4.43454177385375 1.63177107039155E-05  4.1006069846068 1.63177107039155E-05  4.1006069846068 1.63177107039155E-05  C 4.1006069846068 1.63177107039155E-05  3.86442901048108 0.236144118889238  3.86442901048108 0.236144118889238  C 3.21253372136704 0.884470599938269  2.77999256441111 1.72063758647279  2.62750485499812 2.62730302108299  C 1.72083942038792 2.77979073049598  0.884672241630621 3.21233188745192  0.236345760581589 3.86422717656596  C 0.236345760581589 3.86422717656596  0.000217767193477785 4.10040553513723  0.000217767193477785 4.10040553513723  C 0.000217767193477785 4.10040553513723  0.000217767193477785 4.43434032438417  0.000217767193477785 4.43434032438417  C -0.00237922239639742 5.35380673867149  0.283013005518441 6.2510054418268  0.816334954229011 7  C 0.282975377909978 7.74891142182245  -0.0024864751998104 8.64603746476831  1.63177209697193E-05 9.56545822614625  C 1.63177209697193E-05 9.56545822614625  1.63177209697193E-05 9.8993930153932  1.63177209697193E-05 9.8993930153932  C 1.63177209697193E-05 9.8993930153932  0.236143926666462 10.1355709895189  0.236143926666462 10.1355709895189  Z M 3.00910858609713 7  C 3.00910858609713 7  2.43924725011588 6.42993721454918  2.43924725011588 6.42993721454918  C 1.99210237620304 5.98547663559614  1.70802941224728 5.40312697028346  1.63300649053934 4.77714350363905  C 2.12867411182093 4.38739822490504  2.74137359100705 4.17634754902573  3.37191658190558 4.17815734148212  C 3.37191658190558 4.17815734148212  4.17815734148212 4.17815734148212  4.17815734148212 4.17815734148212  C 4.17815734148212 4.17815734148212  4.17815734148212 3.37191658190558  4.17815734148212 3.37191658190558  C 4.1763385290095 2.74144336787485  4.38733390235852 2.12880477525313  4.77699280098242 1.63315796208708  C 5.40297742096349 1.70817704534645  5.98532828766853 1.99225057996358  6.42978651189255 2.43939872166362  C 6.42978651189255 2.43939872166362  7 3.00910858609713  7 3.00910858609713  C 7 3.00910858609713  7.57006201655972 2.43904580064631  7.57006201655972 2.43904580064631  C 8.01452259551275 1.99190092673347  8.59687302971654 1.70782796277771  9.22285649636095 1.63280504106977  C 9.61264468882977 2.12852691722997  9.82369787317877 2.74130453497466  9.82184265851789 3.37191658190558  C 9.82184265851789 3.37191658190558  9.82184265851789 4.17815734148212  9.82184265851789 4.17815734148212  C 9.82184265851789 4.17815734148212  10.6280834180944 4.17815734148212  10.6280834180944 4.17815734148212  C 11.2585566321251 4.1763385290095  11.8711961858608 4.38733390235852  12.3668429990268 4.77699280098242  C 12.2918200773189 5.40297626762683  12.0077471133631 5.98532593293952  11.5606022394503 6.42978651189255  C 11.5606022394503 6.42978651189255  10.9908923750168 7  10.9908923750168 7  C 10.9908923750168 7  11.5610051383894 7.57011276337266  11.5610051383894 7.57011276337266  C 12.0081532800895 8.01457098759669  12.2922268147066 8.59692185430173  12.367245897966 9.22290647428279  C 11.8715038384142 9.61268733825827  11.2587067100578 9.82372359010837  10.6280834180944 9.82184265851789  C 10.6280834180944 9.82184265851789  9.82184265851789 9.82184265851789  9.82184265851789 9.82184265851789  C 9.82184265851789 9.82184265851789  9.82184265851789 10.6280834180944  9.82184265851789 10.6280834180944  C 9.8236614709905 11.2585566321251  9.61266609764148 11.8711961858608  9.22300719901758 12.3668429990268  C 8.59702373237317 12.2918200773189  8.01467483595159 12.0077471133631  7.57021425699856 11.5606022394503  C 7.57021425699856 11.5606022394503  7 10.9908916061256  7 10.9908916061256  C 7 10.9908916061256  6.42988723662734 11.5608036889198  6.42988723662734 11.5608036889198  C 5.98542901240331 12.0079518306199  5.40307814569827 12.292025365237  4.77709352571721 12.3670444484964  C 4.38735557547655 11.8713566438233  4.17632183341016 11.2586377020811  4.17815734148212 10.6280834180944  C 4.17815734148212 10.6280834180944  4.17815734148212 9.82184265851789  4.17815734148212 9.82184265851789  C 4.17815734148212 9.82184265851789  3.37191658190558 9.82184265851789  3.37191658190558 9.82184265851789  C 2.74144336787485 9.8236614709905  2.12880477525313 9.61266609764148  1.63315796208708 9.22300719901758  C 1.70817704534645 8.59702257903652  1.99225057996358 8.01467171233148  2.43939872166362 7.57021348810745  C 2.43939872166362 7.57021348810745  3.00910858609713 7  3.00910858609713 7  Z " fill-rule="nonzero" fill="#194eb2" stroke="none" transform="matrix(1 0 0 1 335 267 )" />
  </g>
</svg>