<?xml version="1.0" encoding="utf-8"?>
<svg version="1.1" xmlns:xlink="http://www.w3.org/1999/xlink" width="20px" height="15px" xmlns="http://www.w3.org/2000/svg">
  <g transform="matrix(1 0 0 1 -155 -191 )">
    <path d="M 19.9684658979821 11.9194822266135  C 20.0755553902866 10.7060222046406  19.9105460830819 9.11207719574148  19.4634370429054 7.04646826823689  C 18.5796362286114 2.96084036667091  17.2495591386808 0.780191405996717  15.2765290106935 0.184539340534233  C 14.8617895790462 0.0601461780076165  14.4315811367625 -0.00199921171675897  13.9993724461914 4.90228778569809E-05  C 13.4280895739278 4.90228778557699E-05  12.9305610041751 0.142357776294355  12.4042807181072 0.293188130948113  C 11.7700775493102 0.475121921466448  11.0496187149644 0.681768128578576  9.99914164372683 0.681768128578576  C 8.9486645724893 0.681768128578576  8.2277899519543 0.475548086938537  7.59233672235703 0.293614296420201  C 7.06563973610949 0.142357867720015  6.56852758836539 4.90228778569809E-05  5.99891147708173 4.90228778569809E-05  C 5.55197975105761 -0.00153558537449688  5.10700241484231 0.060411901606465  4.67675256481623 0.184113175062145  C 2.71413970288792 0.777208816562864  1.38489617227147 2.95700585262914  0.488177890840607 7.04391192554238  C -0.476044230145027 11.4418524790023  -0.00143361393105875 14.2185794064925  1.81908774531107 14.8628039741984  C 2.06863591610617 14.9527475928477  2.33120332489071 14.9991267402781  2.59579923619008 15  C 3.84295434148655 15  4.84301180367039 13.9377965387865  5.52638444124345 13.0681785871929  C 6.2985122301463 12.0839465850504  7.20231393776663 11.5845883308721  9.99914164372683 11.5845883308721  C 12.4972020764592 11.5845883308721  13.5310122531948 11.9309858500061  14.4239803124862 13.0681785871929  C 14.9852626188704 13.7831315481901  15.5157095490864 14.2833430882028  16.0449066569344 14.5982121031081  C 16.7486971264457 15.0166172027214  17.4520711342097 15.1095012432589  18.1350270716031 14.8696213214757  C 19.2109222974573 14.4942497107103  19.8276244560962 13.5019227181803  19.9684658979821 11.9194822266135  Z M 8.47045807931021 6.61756896577431  C 8.3454266360509 6.74541609827447  8.17584773411429 6.81724000460471  7.99902656040428 6.81724000460471  C 7.99902656040428 6.81724000460471  6.66561650485591 6.81724000460471  6.66561650485591 6.81724000460471  C 6.66561650485591 6.81724000460471  6.66561650485591 8.18067825345535  6.66561650485591 8.18067825345535  C 6.66561650485591 8.36148141332334  6.59537443924697 8.53487985668812  6.47034299598766 8.66272698918829  C 6.34531155272835 8.79057412168846  6.17573265079174 8.86239737788068  5.99891147708173 8.86239737788068  C 5.82209030337172 8.86239737788068  5.65251140143511 8.79057412168846  5.5274799581758 8.66272698918829  C 5.40244851491648 8.53487985668812  5.33220676721728 8.36148141332334  5.33220676721728 8.18067825345535  C 5.33220676721728 8.18067825345535  5.33220676721728 6.81724000460471  5.33220676721728 6.81724000460471  C 5.33220676721728 6.81724000460471  3.99879671166891 6.81724000460471  3.99879671166891 6.81724000460471  C 3.8219755379589 6.81724000460471  3.65239663602229 6.74541609827447  3.52736519276298 6.61756896577431  C 3.40233374950366 6.48972183327414  3.33209168389472 6.31632404004738  3.33209168389472 6.13552088017939  C 3.33209168389472 5.9547177203114  3.40233374950366 5.78131992708464  3.52736519276298 5.65347279458447  C 3.65239663602229 5.52562566208431  3.8219755379589 5.45380175575407  3.99879671166891 5.45380175575407  C 3.99879671166891 5.45380175575407  5.33220676721728 5.45380175575407  5.33220676721728 5.45380175575407  C 5.33220676721728 5.45380175575407  5.33220676721728 4.09036383197244  5.33220676721728 4.09036383197244  C 5.33220676721728 3.90956067210445  5.40244851491648 3.73616287887768  5.5274799581758 3.60831574637752  C 5.65251140143511 3.48046861387735  5.82209030337172 3.40864470754711  5.99891147708173 3.40864470754711  C 6.17573265079174 3.40864470754711  6.34531155272835 3.48046861387735  6.47034299598766 3.60831574637752  C 6.59537443924697 3.73616287887768  6.66561650485591 3.90956067210445  6.66561650485591 4.09036383197244  C 6.66561650485591 4.09036383197244  6.66561650485591 5.45380175575407  6.66561650485591 5.45380175575407  C 6.66561650485591 5.45380175575407  7.99902656040428 5.45380175575407  7.99902656040428 5.45380175575407  C 8.17584773411429 5.45380175575407  8.3454266360509 5.52562566208431  8.47045807931021 5.65347279458447  C 8.59548952256952 5.78131992708464  8.66573158817846 5.9547177203114  8.66573158817846 6.13552088017939  C 8.66573158817846 6.31632404004738  8.59548952256952 6.48972183327414  8.47045807931021 6.61756896577431  Z M 11.4992285920382 6.98766978571104  C 11.3344013477624 6.98766978571104  11.173274980075 6.93769222346401  11.0362261317348 6.84405689765233  C 10.8991772833946 6.75042157184064  10.7923609450916 6.617334113573  10.7292842866439 6.46162425975285  C 10.6662076281963 6.3059144059327  10.6497048545929 6.13457543728066  10.6818610562805 5.96927473723155  C 10.7140172579682 5.80397403718243  10.7933879326076 5.652135775588  10.9099383986315 5.53296061065124  C 11.0264888646553 5.41378544571447  11.1749843310241 5.33262638024843  11.3366444691496 5.29974602574963  C 11.498304607275 5.26686567125082  11.6658687562926 5.28374138510237  11.8181492757857 5.34823852038295  C 11.9704297952789 5.41273565566354  12.1005867878464 5.52195715672257  12.1921599009648 5.6620923244532  C 12.2837330140831 5.80222749218382  12.3326098767559 5.96698175122716  12.3326098767559 6.13552088017939  C 12.3326098767559 6.36152482493517  12.2448080969701 6.57827222646353  12.0885187854449 6.73808114970754  C 11.9322294739198 6.89789007295155  11.7202550542084 6.98766978571104  11.4992285920382 6.98766978571104  Z M 13.3326674184172 8.86239737788068  C 13.167751556804 8.86239685091194  13.0065436850093 8.81236481802052  12.8694500511358 8.71863495807737  C 12.7323564172622 8.62490509813422  12.6255409780477 8.49169241718889  12.5625260089899 8.33585839716533  C 12.499511039932 8.18002437714177  12.4831295960806 8.00857619546079  12.5154550226082 7.84321761281108  C 12.5477804491357 7.67785903016138  12.6273596154341 7.52602459828622  12.7441185905027 7.40693469285573  C 12.8608775655713 7.28784478742524  13.0095666787049 7.20685391215705  13.1713638359242 7.1742145379183  C 13.3331609931436 7.14157516367956  13.5007914859482 7.15875494149592  13.6530352272594 7.22357886763641  C 13.8052789685705 7.28840279377689  13.9352901101144 7.39795665250262  14.0266122235656 7.5383717960765  C 14.1179343370167 7.67878693965038  14.1664609927828 7.84374911080081  14.1660487031349 8.01237832450244  C 14.1654970382443 8.23801292991243  14.0774508873179 8.45421379900935  13.9212213328874 8.61356225184232  C 13.764991778457 8.77291070467528  13.5533333709527 8.86239808299214  13.3326674184172 8.86239737788068  Z M 13.921957611824 4.86335388260692  C 13.7656683002988 5.02316280585093  13.5536938805874 5.11294251861042  13.3326674184172 5.11294251861042  C 13.1678401741414 5.11294251861042  13.006713806454 5.06296495636339  12.8696649581138 4.9693296305517  C 12.7326161097736 4.87569430474002  12.6257997714706 4.74260684647238  12.5627231130229 4.58689699265223  C 12.4996464545753 4.43118713883208  12.4831436809719 4.25984817018004  12.5152998826595 4.09454747013093  C 12.5474560843472 3.92924677008181  12.6268267589866 3.77740850848738  12.7433772250105 3.65823334355061  C 12.8599276910343 3.53905817861385  13.0084231574031 3.4578987880788  13.1700832955286 3.42501843357999  C 13.331743433654 3.39213807908119  13.4993075826716 3.40901379293273  13.6515881021647 3.47351092821332  C 13.8038686216579 3.53800806349391  13.9340256142254 3.64722988962195  14.0255987273438 3.78736505735258  C 14.1171718404621 3.9275002250832  14.1660487031349 4.09225448412653  14.1660487031349 4.26079361307877  C 14.1660487031349 4.48679755783454  14.0782469233491 4.70354495936291  13.921957611824 4.86335388260692  Z M 15.1661062447962 6.98766978571104  C 15.0012790005204 6.98766978571104  14.840152632833 6.93769222346401  14.7031037844928 6.84405689765233  C 14.5660549361526 6.75042157184064  14.4592385978496 6.617334113573  14.396161939402 6.46162425975285  C 14.3330852809543 6.3059144059327  14.3165825073509 6.13457543728066  14.3487387090385 5.96927473723155  C 14.3808949107262 5.80397403718243  14.4602655853656 5.652135775588  14.5768160513895 5.53296061065124  C 14.6933665174133 5.41378544571447  14.8418619837822 5.33262638024843  15.0035221219076 5.29974602574963  C 15.165182260033 5.26686567125082  15.3327464090506 5.28374138510237  15.4850269285437 5.34823852038295  C 15.6373074480369 5.41273565566354  15.7674644406045 5.52195715672257  15.8590375537228 5.6620923244532  C 15.9506106668411 5.80222749218382  15.9994875295139 5.96698175122716  15.9994875295139 6.13552088017939  C 15.9994875295139 6.36152482493517  15.9116857497281 6.57827222646353  15.755396438203 6.73808114970754  C 15.5991071266778 6.89789007295155  15.3871327069664 6.98766978571104  15.1661062447962 6.98766978571104  Z " fill-rule="nonzero" fill="#1a51b8" stroke="none" transform="matrix(1 0 0 1 155 191 )" />
  </g>
</svg>