<?xml version="1.0" encoding="utf-8"?>
<svg version="1.1" xmlns:xlink="http://www.w3.org/1999/xlink" width="16px" height="11px" xmlns="http://www.w3.org/2000/svg">
  <g transform="matrix(1 0 0 1 -331 -112 )">
    <path d="M 11.5704501632755 4.52835416101564  L 10.5741402572632 2.5410195297667  L 8.24310718049625 7.19071691311124  L 6.08015344135171 0  L 4.5309376056624 3.09021064124134  C 4.5309376056624 3.09021064124134  0 3.09021064124134  0 3.09021064124134  C 0.45061536232178 4.03039697072259  1.05894635930036 4.95125789006153  1.83085043714043 5.86223194644137  C 3.63871922264449 7.99517851306102  6.0779002270232 9.44635559250903  8.00428090094882 10.7303480900423  C 8.00428090094882 10.7303480900423  8.40983472703842 11  8.40983472703842 11  C 8.40983472703842 11  8.81538855312802 10.7303480900423  8.81538855312802 10.7303480900423  C 10.7431210181338 9.44635559250903  13.1823020225125 7.99517851306102  14.9888190169364 5.86223194644137  C 15.3513154436458 5.43736758592623  15.6889366540455 4.9920021221475  16 4.52835416101564  C 16 4.52835416101564  11.5704501632755 4.52835416101564  11.5704501632755 4.52835416101564  Z " fill-rule="nonzero" fill="#1a51b8" stroke="none" transform="matrix(1 0 0 1 331 112 )" />
  </g>
</svg>