<?xml version="1.0" encoding="utf-8"?>
<svg version="1.1" xmlns:xlink="http://www.w3.org/1999/xlink" width="18px" height="15px" xmlns="http://www.w3.org/2000/svg">
  <g transform="matrix(1 0 0 1 -70 -190 )">
    <path d="M 16.5 0  C 16.5 0  0.75 0  0.75 0  C 0.551087625324726 0  0.360322337597609 0.0831766073641024  0.219670057296753 0.23123163925974  C 0.0790177769958973 0.379286671155377  0 0.580092237183922  0 0.789473684210526  C 0 0.789473684210526  0 10.2631578947368  0 10.2631578947368  C 0.00136469834251329 11.5190056123232  0.475908637046814 12.7230055708634  1.31952667236328 13.6110245554071  C 2.16314470767975 14.4990435399507  3.306944668293 14.9985634754289  4.5 15  C 4.5 15  9.75 15  9.75 15  C 10.943055331707 14.9985634754289  12.0868552923203 14.4990435399507  12.9304733276367 13.6110245554071  C 13.7740913629532 12.7230055708634  14.2486353016575 11.5190056123232  14.25 10.2631578947368  C 14.25 10.2631578947368  14.25 6.31578947368421  14.25 6.31578947368421  C 14.25 6.31578947368421  15.09375 6.31578947368421  15.09375 6.31578947368421  C 15.864268809557 6.31487529406226  16.6029805541039 5.9922730922699  17.1478199958801 5.41875789040013  C 17.6926594376564 4.84524268853037  17.9991315293591 4.06765137848101  18 3.25657894736842  C 18 3.25657894736842  18 1.57894736842105  18 1.57894736842105  C 18 1.16018447436784  17.8419644460082 0.758572965860367  17.5606598854065 0.462462902069092  C 17.2793553248048 0.166352838277817  16.8978247493505 0  16.5 0  Z M 16.5 1.57894736842105  C 16.5 1.57894736842105  16.5 3.25657894736842  16.5 3.25657894736842  C 16.5 3.64916915172025  16.3518415912986 4.02568024240042  16.0881185531616 4.30328344043932  C 15.8243955150247 4.58088663847823  15.4667106941342 4.73684210526316  15.09375 4.73684210526316  C 15.09375 4.73684210526316  14.25 4.73684210526316  14.25 4.73684210526316  L 14.25 1.57894736842105  L 16.5 1.57894736842105  Z " fill-rule="nonzero" fill="#1a51b8" stroke="none" transform="matrix(1 0 0 1 70 190 )" />
  </g>
</svg>