<?xml version="1.0" encoding="utf-8"?>
<svg version="1.1" xmlns:xlink="http://www.w3.org/1999/xlink" width="20px" height="23px" xmlns="http://www.w3.org/2000/svg">
  <g transform="matrix(1 0 0 1 -242 -188 )">
    <path d="M 17.5 0  C 17.5 0  2.5 0  2.5 0  C 1.83695877591769 0  1.20107407371203 0.2596294347729  0.732233126958211 0.721772653715951  C 0.263392180204391 1.183915872659  0 1.81071650769029  0 2.46428571428571  C 0 2.46428571428571  0 18.8928571428571  0 18.8928571428571  C -2.33531817324846E-05 19.2392999870437  0.0741999596357346 19.5818391740322  0.217808485031128 19.8980420657567  C 0.361417010426521 20.2142449574811  0.571171045303345 20.4969777464867  0.833333333333333 20.7277227129255  C 0.833333333333333 20.7277227129255  0.833333333333333 21.6651785714286  0.833333333333333 21.6651785714286  C 0.833333333333333 22.0191952352013  0.976004203160604 22.3587117195129  1.22995972633362 22.6090393066406  C 1.48391524950663 22.8593668937683  1.82835265994072 23  2.1875 23  C 2.1875 23  3.64583333333333 23  3.64583333333333 23  C 4.00498067339261 23  4.349418481191 22.8593668937683  4.60337400436401 22.6090393066406  C 4.85732952753703 22.3587117195129  5 22.0191952352013  5 21.6651785714286  C 5 21.6651785714286  5 21  5 21  L 15 21  C 15 21  15 21.6651785714286  15 21.6651785714286  C 15 22.0191952352013  15.1426712671916 22.3587117195129  15.3966267903646 22.6090393066406  C 15.6505823135376 22.8593668937683  15.9950193266074 23  16.3541666666667 23  C 16.3541666666667 23  17.8125 23  17.8125 23  C 18.1716473400593 23  18.5160843531291 22.8593668937683  18.7700398763021 22.6090393066406  C 19.0239953994751 22.3587117195129  19.1666666666667 22.0191952352013  19.1666666666667 21.6651785714286  C 19.1666666666667 21.6651785714286  19.1666666666667 20.7277227129255  19.1666666666667 20.7277227129255  C 19.4288289546967 20.4969777464867  19.6385833869378 20.2142449574811  19.7821919123332 19.8980420657567  C 19.9258004377286 19.5818391740322  20.0000233586934 19.2392999870437  20 18.8928571428571  C 20 18.8928571428571  20 2.46428571428571  20 2.46428571428571  C 20 1.81071650769029  19.7366082171599 1.183915872659  19.2677672704061 0.721772653715951  C 18.7989263236523 0.2596294347729  18.1630412240823 0  17.5 0  Z M 5.34558614095052 18.4120777675084  C 5.07706917822361 18.6767587736249  4.72490713000298 18.8431183327255  4.34739589691162 18.8836164474487  C 4.00438254078229 18.9204137441037  3.65823825200399 18.8513662314841  3.35672855377197 18.6860021863665  C 3.05521885553996 18.5206381412489  2.8132073332866 18.2671100007636  2.66409079233805 17.9604023524693  C 2.5149742513895 17.653694704175  2.46610329175989 17.3089268878102  2.52422213554382 16.9736768858773  C 2.58234097932776 16.6384268839444  2.74458455542723 16.3292213454843  2.98856377601624 16.0887275423322  C 3.23254299660524 15.8482337391802  3.54623017211755 15.6883071450783  3.88633886973063 15.6310185704912  C 4.22644756734371 15.5737299959042  4.57621122399966 15.6219031906554  4.88736391067505 15.7688894953047  C 5.19851659735044 15.9158757999539  5.45571985344092 16.1544300147465  5.62348047892253 16.4516324315752  C 5.79124110440413 16.7488348484039  5.86128930561244 17.0900342187711  5.82395871480306 17.4281473840986  C 5.78287367088099 17.8002655995744  5.61410310367743 18.1473967613918  5.34558614095052 18.4120777675084  Z M 9.10564740498861 13.0827095849173  C 9.06657732712726 13.1212215188092  9.01358677074313 13.1428571428571  8.95833333333333 13.1428571428571  C 8.95833333333333 13.1428571428571  2.5 13.1428571428571  2.5 13.1428571428571  C 2.27898625036081 13.1428571428571  2.0670248195529 13.0563146466655  1.9107445081075 12.9022669110979  C 1.75446419666211 12.7482191755303  1.66666666666667 12.5392849817872  1.66666666666667 12.3214285714286  C 1.66666666666667 12.3214285714286  1.66666666666667 5.75  1.66666666666667 5.75  C 1.66666666666667 5.53214358964137  1.75446419666211 5.32321017927357  1.9107445081075 5.16916244370597  C 2.0670248195529 5.01511470813836  2.27898625036081 4.92857142857143  2.5 4.92857142857143  C 2.5 4.92857142857143  8.95833333333333 4.92857142857143  8.95833333333333 4.92857142857143  C 9.01358677074313 4.92857142857143  9.06657732712726 4.95020705261933  9.10564740498861 4.98871898651123  C 9.14471748284995 5.02723092040313  9.16666666666667 5.07946446883891  9.16666666666667 5.13392857142857  C 9.16666666666667 5.13392857142857  9.16666666666667 12.9375  9.16666666666667 12.9375  C 9.16666666666667 12.9919641025897  9.14471748284995 13.0441976510254  9.10564740498861 13.0827095849173  Z M 17.5 3.28571428571429  C 17.5 3.28571428571429  10 3.28571428571429  10 3.28571428571429  C 10 3.28571428571429  2.52395828564962 3.28571428571429  2.52395828564962 3.28571428571429  C 2.07604159911474 3.28571428571429  1.69062482503553 2.9468748824937  1.66770815849304 2.50587041037423  C 1.6619880637154 2.39463783321636  1.67927608825266 2.28342073996152  1.71852072079976 2.17897924355098  C 1.75776535334686 2.07453774714044  1.81814678634206 1.97905380491699  1.89599514007568 1.89833189759936  C 1.9738434938093 1.81760999028172  2.0675322599709 1.75333624146879  2.1713662147522 1.70941780294691  C 2.27520016953349 1.66549936442503  2.3870104799668 1.64285354905811  2.5 1.64285714285714  C 2.5 1.64285714285714  17.4760421117147 1.64285714285714  17.4760421117147 1.64285714285714  C 17.9239587982496 1.64285714285714  18.3093755723288 1.98169654607773  18.3322922388713 2.4227010181972  C 18.3380123336489 2.53393359535507  18.320723514383 2.64515068860991  18.2814788818359 2.74959218502045  C 18.2422342492888 2.85403368143099  18.1818532136579 2.94951762365443  18.1040048599243 3.03023953097207  C 18.0261565061907 3.11096143828971  17.9324669453005 3.17523518710264  17.8286329905192 3.21915362562452  C 17.7247990357379 3.2630720641464  17.6129895200332 3.28571787951332  17.5 3.28571428571429  Z M 11.0416666666667 4.92857142857143  C 11.0416666666667 4.92857142857143  17.5 4.92857142857143  17.5 4.92857142857143  C 17.7210137496392 4.92857142857143  17.9329759751757 5.01511470813836  18.0892562866211 5.16916244370597  C 18.2455365980665 5.32321017927357  18.3333333333333 5.53214358964137  18.3333333333333 5.75  C 18.3333333333333 5.75  18.3333333333333 12.3214285714286  18.3333333333333 12.3214285714286  C 18.3333333333333 12.5392849817872  18.2455365980665 12.7482191755303  18.0892562866211 12.9022669110979  C 17.9329759751757 13.0563146466655  17.7210137496392 13.1428571428571  17.5 13.1428571428571  C 17.5 13.1428571428571  11.0416666666667 13.1428571428571  11.0416666666667 13.1428571428571  C 10.9864132292569 13.1428571428571  10.9334226728727 13.1212215188092  10.8943525950114 13.0827095849173  C 10.85528251715 13.0441976510254  10.8333333333333 12.9919641025897  10.8333333333333 12.9375  C 10.8333333333333 12.9375  10.8333333333333 5.13392857142857  10.8333333333333 5.13392857142857  C 10.8333333333333 5.07946446883891  10.85528251715 5.02723092040313  10.8943525950114 4.98871898651123  C 10.9334226728727 4.95020705261933  10.9864132292569 4.92857142857143  11.0416666666667 4.92857142857143  Z M 14.6544138590495 18.4120777675084  C 14.3858968963226 18.1473967613918  14.217126329119 17.8002655995744  14.1760412851969 17.4281473840986  C 14.1387106943876 17.0900342187711  14.2087588955959 16.7488348484039  14.3765195210775 16.4516324315752  C 14.5442801465591 16.1544300147465  14.801482607921 15.9158757999539  15.1126352945964 15.7688894953047  C 15.4237879812717 15.6219031906554  15.7735524326563 15.5737299959042  16.1136611302694 15.6310185704912  C 16.4537698278824 15.6883071450783  16.7674566060305 15.8482337391802  17.0114358266195 16.0887275423322  C 17.2554150472085 16.3292213454843  17.4176594180365 16.6384268839444  17.4757782618205 16.9736768858773  C 17.5338971056044 17.3089268878102  17.4850257486105 17.653694704175  17.3359092076619 17.9604023524693  C 17.1867926667134 18.2671100007636  16.94478114446 18.5206381412489  16.643271446228 18.6860021863665  C 16.341761747996 18.8513662314841  15.9956174592177 18.9204137441037  15.6526041030884 18.8836164474487  C 15.275092869997 18.8431183327255  14.9229308217764 18.6767587736249  14.6544138590495 18.4120777675084  Z " fill-rule="nonzero" fill="#1a51b8" stroke="none" transform="matrix(1 0 0 1 242 188 )" />
  </g>
</svg>