<?xml version="1.0" encoding="utf-8"?>
<svg version="1.1" xmlns:xlink="http://www.w3.org/1999/xlink" width="19px" height="10px" xmlns="http://www.w3.org/2000/svg">
  <g transform="matrix(1 0 0 1 -330 -106 )">
    <path d="M 4.6640401549162 8.27223124279231  L 7.47822603249038 2.47978942068815  L 9.67038727508276 10  L 11.692197479784 5.83850326748636  L 13.6053149250356 9.77627328693637  C 13.6053149250356 9.77627328693637  18.0248014234908 9.77627328693637  18.0248014234908 9.77627328693637  C 18.6825019220749 8.38024287765429  19.0161344163046 6.84607170110102  18.9993992988617 5.29469772165262  C 18.9706271919168 2.37544608790944  16.694891089634 0  13.9263750492118 0  C 11.7291907743631 0  10.2682072082229 1.31603678862605  9.50003763092978 2.26593329909979  C 8.73186805363662 1.31603678862605  7.27088448749645 0  5.07370021264776 0  C 2.30518417222554 0  0.0294472413048211 2.37544608790944  0.000675134359974276 5.29469772165262  C -0.0109140704880265 6.30278638198321  0.12676131135868 7.30681148267572  0.408964974388595 8.27223124279231  C 0.408964974388595 8.27223124279231  4.6640401549162 8.27223124279231  4.6640401549162 8.27223124279231  Z " fill-rule="nonzero" fill="#1a51b8" stroke="none" transform="matrix(1 0 0 1 330 106 )" />
  </g>
</svg>