<?xml version="1.0" encoding="utf-8"?>
<svg version="1.1" xmlns:xlink="http://www.w3.org/1999/xlink" width="22px" height="18px" xmlns="http://www.w3.org/2000/svg">
  <g transform="matrix(1 0 0 1 -42 -738 )">
    <path d="M 1.83333333333333 0  L 20.1666666666667 0  C 20.6708333333333 0  21.1024305555556 0.183593749999998  21.4614583333333 0.550781250000001  C 21.8204861111111 0.917968749999999  22 1.359375  22 1.875  L 22 16.125  C 22 16.640625  21.8204861111111 17.08203125  21.4614583333333 17.44921875  C 21.1024305555556 17.81640625  20.6708333333333 18  20.1666666666667 18  L 1.83333333333333 18  C 1.32916666666667 18  0.897569444444445 17.81640625  0.538541666666667 17.44921875  C 0.179513888888889 17.08203125  0 16.640625  0 16.125  L 0 1.875  C 0 1.359375  0.179513888888889 0.917968749999999  0.538541666666667 0.550781250000001  C 0.897569444444445 0.183593749999998  1.32916666666667 0  1.83333333333333 0  Z M 20.1666666666667 1.5  L 1.83333333333333 1.5  C 1.73402777777778 1.5  1.64809027777778 1.537109375  1.57552083333333 1.611328125  C 1.50295138888889 1.685546875  1.46666666666667 1.7734375  1.46666666666667 1.875  L 1.46666666666667 4.5  L 20.5333333333333 4.5  L 20.5333333333333 1.875  C 20.5333333333333 1.7734375  20.4970486111111 1.685546875  20.4244791666667 1.611328125  C 20.3519097222222 1.537109375  20.2659722222222 1.5  20.1666666666667 1.5  Z M 1.83333333333333 16.5  L 20.1666666666667 16.5  C 20.2659722222222 16.5  20.3519097222222 16.462890625  20.4244791666667 16.388671875  C 20.4970486111111 16.314453125  20.5333333333333 16.2265625  20.5333333333333 16.125  L 20.5333333333333 9  L 1.46666666666667 9  L 1.46666666666667 16.125  C 1.46666666666667 16.2265625  1.50295138888889 16.314453125  1.57552083333333 16.388671875  C 1.64809027777778 16.462890625  1.73402777777778 16.5  1.83333333333333 16.5  Z M 5.86666666666667 15  L 2.93333333333333 15  L 2.93333333333333 13.5  L 5.86666666666667 13.5  L 5.86666666666667 15  Z M 11.7333333333333 15  L 7.33333333333333 15  L 7.33333333333333 13.5  L 11.7333333333333 13.5  L 11.7333333333333 15  Z " fill-rule="nonzero" fill="#6300bf" stroke="none" transform="matrix(1 0 0 1 42 738 )" />
  </g>
</svg>