<?xml version="1.0" encoding="utf-8"?>
<svg version="1.1" xmlns:xlink="http://www.w3.org/1999/xlink" width="19px" height="18px" xmlns="http://www.w3.org/2000/svg">
  <g transform="matrix(1 0 0 1 -234 -738 )">
    <path d="M 0 3.85714285714286  L 9.5 0  L 19 3.85714285714286  L 19 5.14285714285714  L 17.7333333333333 5.14285714285714  C 17.7333333333333 5.31696428571429  17.6657118055556 5.46763392857143  17.53046875 5.59486607142857  C 17.3952256944444 5.72209821428571  17.2352430555556 5.78571428571428  17.0505208333333 6  L 1.94947916666667 6  C 1.76475694444444 5.78571428571428  1.60477430555556 5.72209821428571  1.46953125 5.59486607142857  C 1.33428819444444 5.46763392857143  1.26666666666667 5.31696428571429  1.26666666666667 5.14285714285714  L 0 5.14285714285714  L 0 3.85714285714286  Z M 2.53333333333333 14.1428571428571  L 2.53333333333333 6.42857142857143  L 5.06666666666667 6.42857142857143  L 5.06666666666667 14.1428571428571  L 6.33333333333333 14.1428571428571  L 6.33333333333333 6.42857142857143  L 8.86666666666667 6.42857142857143  L 8.86666666666667 14.1428571428571  L 10.1333333333333 14.1428571428571  L 10.1333333333333 6.42857142857143  L 12.6666666666667 6.42857142857143  L 12.6666666666667 14.1428571428571  L 13.9333333333333 14.1428571428571  L 13.9333333333333 6.42857142857143  L 16.4666666666667 6.42857142857143  L 16.4666666666667 14.1428571428571  L 17.0505208333333 14.1428571428571  C 17.2352430555556 14.1428571428571  17.3952256944444 14.2064732142857  17.53046875 14.3337053571429  C 17.6657118055556 14.4609375  17.7333333333333 14.6116071428571  17.7333333333333 14.7857142857143  L 17.7333333333333 15.4285714285714  L 1.26666666666667 15.4285714285714  L 1.26666666666667 14.7857142857143  C 1.26666666666667 14.6116071428571  1.33428819444444 14.4609375  1.46953125 14.3337053571429  C 1.60477430555556 14.2064732142857  1.76475694444444 14.1428571428571  1.94947916666667 14.1428571428571  L 2.53333333333333 14.1428571428571  Z M 0.6828125 16  L 18.3171875 16  C 18.5019097222222 16.0714285714286  18.6618923611111 16.1350446428571  18.7971354166667 16.2622767857143  C 18.9323784722222 16.3895089285714  19 16.5401785714286  19 16.7142857142857  L 19 18  L 0 18  L 0 16.7142857142857  C 0 16.5401785714286  0.0676215277777778 16.3895089285714  0.202864583333333 16.2622767857143  C 0.338107638888889 16.1350446428571  0.498090277777778 16.0714285714286  0.6828125 16  Z " fill-rule="nonzero" fill="#1a51b8" stroke="none" transform="matrix(1 0 0 1 234 738 )" />
  </g>
</svg>