<?xml version="1.0" encoding="utf-8"?>
<svg version="1.1" xmlns:xlink="http://www.w3.org/1999/xlink" width="21px" height="18px" xmlns="http://www.w3.org/2000/svg">
  <g transform="matrix(1 0 0 1 -233 -641 )">
    <path d="M 20.694391215289 3.0746681873615  C 20.5972736167841 2.97754427446769  20.4816411110607 2.9005248695612  20.3542160822204 2.84808903474074  C 20.22679105338 2.79565319992029  20.0901166332778 2.76884752206164  19.9521434413802 2.76923076923077  C 19.9521434413802 2.76923076923077  19.2111188541105 2.76923076923077  19.2111188541105 2.76923076923077  C 19.2111188541105 2.76923076923077  19.2111188541105 1.03846153846154  19.2111188541105 1.03846153846154  C 19.2108068338873 0.763139323546336  19.1003057062437 0.499182205933791  18.9038578347236 0.304499882918138  C 18.7074099632035 0.109817559902485  18.4410587199302 0.000309215983949029  18.1632396438863 0  C 18.1632396438863 0  3.08369015955295 0  3.08369015955295 0  C 2.2658482354876 1.14754198316055E-05  1.48150632717368 0.321983140248519  0.903204745187533 0.895087315486028  C 0.324903163201384 1.46819149072354  1.15794889119809E-05 2.24548423290253  0 3.05597591400146  C 0 3.05597591400146  0 14.9440234257625  0 14.9440234257625  C 1.15794889119809E-05 15.7545151068614  0.324903163201384 16.5318085092765  0.903204745187533 17.104912684514  C 1.48150632717368 17.6780168597515  2.2658482354876 17.9999885245802  3.08369015955295 18  C 3.08369015955295 18  19.9108842101376 18  19.9108842101376 18  C 20.1880521774711 17.9994667905087  20.4537636586557 17.8903427124023  20.6500660227647 17.6964287391076  C 20.8463683868736 17.5025147658128  20.9573347043743 17.2395438345579  20.9587634203618 16.9648700127235  C 20.9587634203618 16.9648700127235  20.9999800132902 3.81124041630672  20.9999800132902 3.81124041630672  C 21.0008478113272 3.67452175456744  20.9742776041684 3.53899626319225  20.9218159886445 3.41254564431997  C 20.8693543731207 3.2860950254477  20.7920473411157 3.17124283543  20.694391215289 3.0746681873615  Z M 19.601759096951 4.15384615384615  L 19.5627263851789 16.6153846153846  C 19.5627263851789 16.6153846153846  3.08369015955295 16.6153846153846  3.08369015955295 16.6153846153846  C 2.63639779600841 16.6153846153846  2.20742543803254 16.439294808186  1.89114198063726 16.125853905311  C 1.57485852324197 15.812413002436  1.39717228029895 15.3872958100759  1.39717228029895 14.9440234257625  C 1.39717228029895 14.9440234257625  1.39717228029895 3.05597591400146  1.39717228029895 3.05597591400146  C 1.39717228029895 2.61270352968803  1.57485852324197 2.18758633732796  1.89114198063726 1.87414543445294  C 2.20742543803254 1.56070453157792  2.63639779600841 1.38461538461538  3.08369015955295 1.38461538461538  C 3.08369015955295 1.38461538461538  17.8139465738116 1.38461538461538  17.8139465738116 1.38461538461538  L 17.8139465738116 3  L 3.14363763067263 3  L 3.14363763067263 4.15384615384615  L 19.601759096951 4.15384615384615  Z " fill-rule="nonzero" fill="#fa2591" stroke="none" transform="matrix(1 0 0 1 233 641 )" />
  </g>
</svg>