<?xml version="1.0" encoding="utf-8"?>
<svg version="1.1" xmlns:xlink="http://www.w3.org/1999/xlink" width="15px" height="30px" xmlns="http://www.w3.org/2000/svg">
  <g transform="matrix(1 0 0 1 -252 -678 )">
    <path d="M 14.7912205567452 18.2645089285714  C 14.9304068522484 18.7555803571429  15 19.2801339285714  15 19.8381696428571  C 15 21.5457589285714  14.4673447537473 23.0161830357143  13.402034261242 24.2494419642857  C 12.3367237687366 25.4827008928571  10.9528907922912 26.2444196428571  9.25053533190578 26.5345982142857  L 9.25053533190578 29.4642857142857  C 9.25053533190578 29.6205357142857  9.20235546038544 29.7488839285714  9.10599571734475 29.8493303571429  C 9.00963597430407 29.9497767857143  8.8865096359743 30  8.73661670235546 30  L 6.56852248394004 30  C 6.42933618843683 30  6.30888650963597 29.9469866071429  6.20717344753747 29.8409598214286  C 6.10546038543897 29.7349330357143  6.05460385438972 29.609375  6.05460385438972 29.4642857142857  L 6.05460385438972 26.5345982142857  C 5.34796573875803 26.4341517857143  4.66541755888651 26.2611607142857  4.00695931477516 26.015625  C 3.34850107066381 25.7700892857143  2.8051391862955 25.5217633928571  2.37687366167024 25.2706473214286  C 1.94860813704497 25.01953125  1.5524625267666 24.7516741071429  1.18843683083512 24.4670758928571  C 0.82441113490364 24.1824776785714  0.575481798715204 23.9732142857143  0.441648822269807 23.8392857142857  C 0.307815845824411 23.7053571428571  0.214132762312634 23.6049107142857  0.160599571734475 23.5379464285714  C -0.0214132762312633 23.3035714285714  -0.0321199143468951 23.0747767857143  0.12847965738758 22.8515625  L 1.78265524625268 20.5915178571429  C 1.8576017130621 20.4799107142857  1.98072805139186 20.4129464285714  2.15203426124197 20.390625  C 2.31263383297645 20.3683035714286  2.44111349036403 20.4185267857143  2.53747323340471 20.5412946428571  L 2.56959314775161 20.5747767857143  C 3.77944325481799 21.6796875  5.08029978586724 22.3772321428571  6.47216274089936 22.6674107142857  C 6.86830835117773 22.7566964285714  7.2644539614561 22.8013392857143  7.66059957173448 22.8013392857143  C 8.52783725910064 22.8013392857143  9.2906852248394 22.5613839285714  9.94914346895075 22.0814732142857  C 10.6076017130621 21.6015625  10.9368308351178 20.9207589285714  10.9368308351178 20.0390625  C 10.9368308351178 19.7265625  10.8565310492505 19.4308035714286  10.6959314775161 19.1517857142857  C 10.5353319057816 18.8727678571429  10.3559957173448 18.6383928571429  10.1579229122056 18.4486607142857  C 9.95985010706638 18.2589285714286  9.64668094218416 18.0496651785714  9.21841541755889 17.8208705357143  C 8.79014989293362 17.5920758928571  8.43683083511777 17.4135044642857  8.15845824411135 17.28515625  C 7.88008565310493 17.1568080357143  7.45182012847966 16.9754464285714  6.87366167023555 16.7410714285714  C 6.45610278372591 16.5625  6.12687366167023 16.4229910714286  5.88597430406852 16.3225446428571  C 5.64507494646681 16.2220982142857  5.31584582441114 16.07421875  4.8982869379015 15.87890625  C 4.48072805139186 15.68359375  4.14614561027837 15.5106026785714  3.89453961456103 15.3599330357143  C 3.64293361884368 15.2092633928571  3.34047109207709 15.0111607142857  2.98715203426124 14.765625  C 2.6338329764454 14.5200892857143  2.34743040685225 14.2829241071429  2.1279443254818 14.0541294642857  C 1.90845824411135 13.8253348214286  1.67558886509636 13.5518973214286  1.42933618843683 13.2338169642857  C 1.1830835117773 12.9157366071429  0.993040685224839 12.5920758928571  0.859207708779443 12.2628348214286  C 0.725374732334047 11.93359375  0.612955032119914 11.5625  0.521948608137045 11.1495535714286  C 0.430942184154176 10.7366071428571  0.385438972162741 10.3013392857143  0.385438972162741 9.84375  C 0.385438972162741 8.30357142857143  0.910064239828694 6.953125  1.9593147751606 5.79241071428571  C 3.00856531049251 4.63169642857142  4.37366167023555 3.88392857142857  6.05460385438972 3.54910714285714  L 6.05460385438972 0.535714285714287  C 6.05460385438972 0.390624999999998  6.10546038543897 0.265066964285714  6.20717344753747 0.159040178571429  C 6.30888650963597 0.0530133928571441  6.42933618843683 0  6.56852248394004 0  L 8.73661670235546 0  C 8.8865096359743 0  9.00963597430407 0.0502232142857129  9.10599571734475 0.150669642857142  C 9.20235546038544 0.251116071428571  9.25053533190578 0.379464285714283  9.25053533190578 0.535714285714287  L 9.25053533190578 3.48214285714286  C 9.86081370449679 3.54910714285714  10.4523554603854 3.67745535714285  11.0251605995717 3.8671875  C 11.597965738758 4.05691964285714  12.063704496788 4.24386160714286  12.4223768736617 4.42801339285714  C 12.7810492505353 4.61216517857143  13.1209850107066 4.82142857142857  13.4421841541756 5.05580357142857  C 13.7633832976445 5.29017857142857  13.9721627408994 5.45200892857142  14.06852248394 5.54129464285714  C 14.1648822269807 5.63058035714286  14.245182012848 5.70870535714286  14.3094218415418 5.77566964285714  C 14.4914346895075 5.9765625  14.5182012847966 6.18861607142857  14.389721627409 6.41183035714286  L 13.0888650963597 8.85602678571429  C 13.0032119914347 9.0234375  12.8800856531049 9.11272321428571  12.7194860813704 9.12388392857143  C 12.5695931477516 9.15736607142857  12.4250535331906 9.11830357142857  12.2858672376874 9.00669642857143  C 12.2537473233405 8.97321428571429  12.1761241970021 8.90625  12.0529978586724 8.80580357142857  C 11.9298715203426 8.70535714285714  11.7210920770878 8.55747767857143  11.4266595289079 8.36216517857143  C 11.1322269807281 8.16685267857143  10.8190578158458 7.98828125  10.4871520342612 7.82645089285714  C 10.1552462526767 7.66462053571428  9.75642398286938 7.51953125  9.2906852248394 7.39118303571429  C 8.82494646680942 7.26283482142857  8.36723768736617 7.19866071428571  7.91755888650964 7.19866071428571  C 6.90042826552463 7.19866071428571  6.07066381156317 7.43861607142857  5.42826552462527 7.91852678571429  C 4.78586723768737 8.3984375  4.46466809421842 9.01785714285714  4.46466809421842 9.77678571428571  C 4.46466809421842 10.0669642857143  4.51017130620985 10.3348214285714  4.60117773019272 10.5803571428571  C 4.69218415417559 10.8258928571429  4.85010706638116 11.0574776785714  5.07494646680942 11.2751116071429  C 5.29978586723769 11.4927455357143  5.51124197002141 11.6768973214286  5.7093147751606 11.8275669642857  C 5.90738758029979 11.9782366071429  6.20717344753747 12.1512276785714  6.60867237687366 12.3465401785714  C 7.01017130620985 12.5418526785714  7.33404710920771 12.6925223214286  7.58029978586724 12.7985491071429  C 7.82655246252677 12.9045758928571  8.20128479657388 13.0580357142857  8.70449678800857 13.2589285714286  C 9.27194860813705 13.4821428571429  9.70556745182013 13.6579241071429  10.0053533190578 13.7862723214286  C 10.3051391862955 13.9146205357143  10.7119914346895 14.1099330357143  11.2259100642398 14.3722098214286  C 11.7398286937901 14.6344866071429  12.1440042826552 14.8716517857143  12.4384368308351 15.0837053571429  C 12.732869379015 15.2957589285714  13.0647751605996 15.5747767857143  13.4341541755889 15.9207589285714  C 13.8035331905782 16.2667410714286  14.0872591006424 16.62109375  14.2853319057816 16.9838169642857  C 14.4834047109208 17.3465401785714  14.652034261242 17.7734375  14.7912205567452 18.2645089285714  Z " fill-rule="nonzero" fill="#f59a23" stroke="none" transform="matrix(1 0 0 1 252 678 )" />
  </g>
</svg>